<?xml version="1.0" encoding="utf-8"?>
<!-- Generator: Adobe Illustrator 23.0.1, SVG Export Plug-In . SVG Version: 6.00 Build 0)  -->
<svg version="1.1" id="Layer_1" xmlns="http://www.w3.org/2000/svg" xmlns:xlink="http://www.w3.org/1999/xlink" x="0px" y="0px"
	 viewBox="0 0 100 106.5" style="enable-background:new 0 0 100 106.5;" xml:space="preserve">
<path d="M50,3.5c-19,0-34.1,41-34.1,59.9S31.1,96.5,50,96.5c18.9,0,34.1-14.3,34.1-33.1S69,3.5,50,3.5z M50,9.5
	c5.8,0,12.8,7.3,18.8,19.5c2.5,5.1,4.6,10.8,6.2,16.3l-2.7,4.5L59.5,34.6l-8.1,12.8L40.1,25.9L28.4,41.1l-1.2-2.6
	c1.2-3.3,2.5-6.5,4-9.5C37.2,16.8,44.2,9.5,50,9.5z M50,90.5c-15.8,0-28.1-11.9-28.1-27.1c0-4.5,1-10.3,2.6-16.4l2.6,5.6L39.2,37
	L51,59.5l9.2-14.7l12.9,15.3l3.9-6.5c0.7,3.6,1.1,7,1.1,9.8C78.1,78.6,65.8,90.5,50,90.5z" fill="white"/>
</svg>
