<svg width="73" height="57" viewBox="0 0 73 57" fill="none" xmlns="http://www.w3.org/2000/svg">
<path d="M46 46.5C46 48 44.8 49.3 43.4 49.3H9.6C8.2 49.3 7 48 7 46.5V10.3C7 8.8 8.2 7.5 9.6 7.5H43.4C44.8 7.5 46 8.8 46 10.3V17.7H52.9V10.3C52.9 4.6 48.6 0 43.3 0H9.6C4.3 0 0 4.6 0 10.3V46.5C0 52.2 4.3 56.8 9.6 56.8H43.4C48.7 56.8 53 52.2 53 46.5V38.7H46.1V46.5H46Z" fill="white"/>
<path d="M68.1 24.4H34.4V20.8C34.4 19.7 33.8 18.6 32.8 18.1C31.8 17.6 30.6 17.7 29.7 18.3L19 25.9C18.1 26.5 17.6 27.4 17.6 28.4C17.6 29.4 18.1 30.3 18.9 30.9L29.6 38.5C30.5 39.2 31.7 39.2 32.7 38.7C33.7 38.2 34.3 37.1 34.3 36V33.1V32.4H68.1C70.3 32.4 72.1 30.6 72.1 28.4C72.2 26.2 70.4 24.4 68.1 24.4Z" fill="white"/>
</svg>
