<svg width="25" height="22" viewBox="0 0 25 22" fill="none" xmlns="http://www.w3.org/2000/svg">
<path d="M24.2001 13.8C24.2001 13.1 23.8 12.5 23.1 12.3C22.6 12.2 22.2 12 22 11.9C21.2 11.6 21.1 11.4 21.1 11.4C21.1 11.4 21.1001 11.3 21.2001 11C21.2001 10.9 21.3 10.8 21.4 10.7V10.6C21.6 10.3 21.8 9.89998 21.9 9.59998C22 9.19998 22.1 8.69998 22.1 8.19998C22.1 7.79998 22 7.39998 21.9 6.99998C21.8 6.59998 21.5 6.29998 21.3 5.99998C20.8 5.39998 20.1 5.09998 19.3 5.09998C18.8 5.09998 18.4 5.19998 18.1 5.39998C17.9 5.49998 17.8 5.69998 17.8 5.89998C17.9 6.09998 18.1 6.29998 18.4 6.29998C18.5 6.29998 18.6001 6.29998 18.7001 6.19998C18.9001 6.09998 19.1 6.09998 19.4 6.09998C19.9 6.09998 20.3 6.29998 20.6 6.59998C20.8 6.79998 20.9 6.99998 21 7.19998C21.1 7.49998 21.1 7.69998 21.1 7.99998C21.1 8.69998 20.9 9.39998 20.5 9.99998C20.4 10.1 20.4 10.2 20.3 10.3C20 10.8 19.9 11.3 20.1 11.7C20.2 11.9 20.4 12.1 20.8 12.3C21 12.4 21.3 12.6 21.6 12.7C21.9 12.8 22.3 12.9 22.9 13.1C23.1 13.2 23.2001 13.4 23.2001 13.6V14H22.1C21.9 14 21.7001 14.1 21.7001 14.2C21.6001 14.3 21.6 14.4 21.6 14.6C21.6 14.9 21.8 15.1 22.1 15.1H24.4001L24.2001 13.8Z" fill="white"/>
<path d="M1.4 13.2001C2 13.0001 2.4 12.9001 2.7 12.8001C3 12.7001 3.3 12.5001 3.5 12.4001C3.8 12.2001 4.1 12.0001 4.2 11.8001C4.4 11.4001 4.3 10.9001 4 10.4001C3.9 10.3001 3.9 10.2001 3.8 10.1001C3.4 9.50007 3.3 8.90007 3.2 8.10007C3.2 7.80007 3.2 7.60007 3.3 7.30007C3.4 7.10007 3.5 6.80007 3.7 6.70007C4 6.40007 4.5 6.20007 4.9 6.20007C5.1 6.20007 5.4 6.30007 5.6 6.30007C5.7 6.30007 5.8 6.40007 5.9 6.40007C6.2 6.40007 6.4 6.20007 6.5 6.00007C6.6 5.80007 6.5 5.60007 6.2 5.50007C5.8 5.30007 5.4 5.20007 5 5.20007C4.3 5.20007 3.5 5.50007 3 6.10007C2.7 6.40007 2.5 6.70007 2.4 7.10007C2.2 7.50007 2.2 7.90007 2.2 8.30007C2.2 8.80007 2.3 9.30007 2.4 9.70007C2.5 10.1001 2.7 10.4001 2.9 10.7001V10.8001C3 10.9001 3 11.0001 3.1 11.0001C3.2 11.2001 3.2 11.3001 3.2 11.4001C3.2 11.4001 3.1 11.6001 2.3 11.9001C2.1 12.0001 1.7 12.1001 1.1 12.3001C0.5 12.5001 0 13.1001 0 13.8001V15.3001H2.3C2.6 15.3001 2.8 15.1001 2.8 14.8001C2.8 14.7001 2.7 14.5001 2.7 14.4001C2.6 14.3001 2.5 14.2001 2.3 14.2001H1.2V13.8001C1 13.5001 1.2 13.3001 1.4 13.2001Z" fill="white"/>
<path d="M18.9 12.5C17.9 12.2 17.2 12 16.8 11.8C15.3 11.2 15 10.8 15 10.8C14.9 10.7 15 10.4 15.2 10C15.3 9.8 15.4 9.7 15.5 9.5L15.6 9.4C15.9 8.9 16.2 8.3 16.4 7.6C16.6 6.9 16.8 6.1 16.8 5.2C16.8 4.5 16.7 3.8 16.5 3.2C16.3 2.6 15.9 2 15.4 1.5C14.5 0.6 13.3 0.1 12.1 0C10.9 0 9.7 0.5 8.8 1.4C8.3 1.9 8 2.4 7.7 3C7.4 3.6 7.3 4.3 7.3 5C7.3 5.8 7.5 6.6 7.7 7.4C7.9 8 8.2 8.6 8.5 9.2L8.6 9.3C8.7 9.5 8.8 9.6 8.9 9.7C9.2 10.2 9.2 10.4 9.1 10.6C9.1 10.6 8.9 11 7.3 11.6C6.9 11.8 6.2 12 5.3 12.2H5.2C4.2 12.5 3.5 13.5 3.5 14.6V16.9H8.3L8.9 17.5L8.5 20.5C8.4 20.8 8.6 21.1 8.8 21.3C9 21.5 9.3 21.5 9.6 21.3L12.1 20L14.5 21.3C14.6 21.4 14.8 21.4 14.9 21.4C15.1 21.4 15.2 21.4 15.3 21.3C15.5 21.1 15.6 20.8 15.6 20.5L15.1 17.8L15.7 17.2H20.5V14.9C20.6 13.8 19.9 12.8 18.9 12.5ZM14.2 16.9C14 17.1 13.8 17.5 13.9 17.9L14.2 19.7L12.6 18.9C12.4 18.8 12.3 18.8 12.1 18.8C11.9 18.8 11.7 18.8 11.6 18.9L10 19.7L10.3 17.9C10.4 17.6 10.2 17.2 10 16.9L8.7 15.6L10.5 15.3C10.8 15.3 11.2 15 11.3 14.7L12.1 13.1L12.9 14.7C13.1 15 13.4 15.2 13.7 15.3L15.5 15.6L14.2 16.9ZM19.2 15.8H17.1C17.3 15.6 17.4 15.3 17.3 15C17.2 14.7 17 14.5 16.7 14.5L14 14.1L12.8 11.6C12.5 11 11.7 11 11.4 11.6L10.2 14.1L7.5 14.5C7.2 14.5 7 14.7 6.9 15C6.8 15.3 6.9 15.5 7.1 15.8H5V14.8C5 14.3 5.3 13.9 5.7 13.7C6.5 13.5 7.2 13.2 7.9 13C8.5 12.8 8.9 12.6 9.3 12.3C9.8 12 10.2 11.7 10.4 11.3C10.7 10.7 10.6 10 10.1 9.1C10 8.9 9.9 8.8 9.8 8.6C9.2 7.6 8.8 6.3 8.8 5C8.8 4.5 8.9 4 9.1 3.5C9.3 3 9.5 2.6 9.9 2.3C10.5 1.6 11.4 1.3 12.2 1.3C13.1 1.3 13.9 1.7 14.5 2.3C14.8 2.6 15.1 3.1 15.3 3.5C15.5 4 15.6 4.5 15.6 5C15.6 6.3 15.2 7.6 14.5 8.6C14.4 8.7 14.3 8.9 14.2 9C13.6 10.1 13.7 10.8 13.9 11.2C14.1 11.5 14.4 11.9 15 12.2C15.4 12.4 15.9 12.6 16.4 12.9C16.8 13.1 17.6 13.3 18.5 13.6C19 13.8 19.3 14.2 19.3 14.7L19.2 15.8Z" fill="white"/>
</svg>
