<svg width="1389" height="500" viewBox="0 0 1389 500" fill="none" xmlns="http://www.w3.org/2000/svg">
<path d="M1159 39.6V459.1C1224.2 470.1 1289 483.4 1353.5 499.1V286.7L1288.4 305.1V425.3C1269.5 421.2 1250.5 417.3 1231.5 413.6V244C1255.1 248.6 1278.6 253.5 1302 258.7V204C1278.6 198.8 1255 193.9 1231.5 189.3V137.5L1191.6 103.4C1210.6 107.1 1269.5 118.3 1288.4 122.4V157C1288.4 157 1333.4 167.3 1353.5 172.2V137.2L1389 88.5C1312.9 68.9 1236.2 52.6 1159 39.6Z" fill="white"/>
<path d="M326.8 177.8L379.1 337.5C397.3 335.4 415.5 333.5 433.8 331.8L484.3 170.4V327.6C505.4 326 526.5 324.6 547.6 323.5V4.60001C520.1 6.10001 492.6 7.90001 465.1 10.2L409.6 237.6L348.7 22.3C321.6 25.7 294.5 29.5 267.5 33.6C267.5 139.9 267.5 246.2 267.5 352.5C285.8 349.7 308.4 346.3 326.8 343.8V177.8V177.8Z" fill="white"/>
<path d="M653.8 246.6C681.3 246.2 708.9 246.2 736.5 246.6C743.4 246.7 749.8 245.3 755.6 242.5C761.2 239.8 766.1 236.3 770 232C774 227.8 777 223 779.1 217.7C781.2 212.4 782.3 207.1 782.3 201.7C782.3 146.3 782.3 100 782.3 45.4C782.3 40 781.1 34.7 778.9 29.4C776.7 24.3 773.5 19.5 769.5 15.3C765.6 11.1 760.7 7.70001 755.2 5.00001C749.6 2.30001 743.3 0.899996 736.5 0.799996C687 -3.57628e-06 637.4 0.600009 587.9 2.50001V321.4C609.9 320.5 631.8 320 653.8 319.6V246.6V246.6ZM612.8 58.5C633.5 58.2 695.2 57.8 716 57.9V189.1C695.3 189 674.5 189 653.7 189.3V83.4L612.8 58.5Z" fill="white"/>
<path d="M888.5 7.5C866.6 6 844.6 4.70001 822.7 3.70001V322.6C844.7 323.6 866.6 324.9 888.5 326.4V7.5Z" fill="white"/>
<path d="M994.7 262.5C1002.5 263.3 1010.3 264.2 1018.1 265.1C1027.7 290.6 1037.2 316.2 1046.8 341.8C1069.7 344.7 1092.5 347.9 1115.3 351.4C1105.6 325.1 1095.9 298.9 1086.1 272.8C1089.7 272.6 1092.9 271.9 1095.9 270.9C1101.5 268.9 1106.3 265.9 1110.2 262.2C1114.1 258.5 1117.2 254 1119.2 249C1121.3 244 1122.4 238.7 1122.4 233.4C1122.4 181.3 1122.4 129.2 1122.4 77.1C1122.4 71.7 1121.2 66.2 1119 60.7C1116.8 55.3 1113.7 50.2 1109.7 45.5C1105.8 40.8 1101 36.8 1095.4 33.5C1089.8 30.2 1083.6 28 1076.8 27.1C1027.6 20.3 978.3 14.8 928.9 10.7V329.6C950.8 331.4 972.8 333.5 994.6 335.9V262.5H994.7ZM954.8 69.3C975.5 71.5 1036.1 78.8 1056.7 81.5V212.7C1036.1 210 1015.4 207.5 994.8 205.3V98.8L954.8 69.3Z" fill="white"/>
<path d="M267.5 391.9V453.1C550.8 409.3 839.1 409.3 1122.5 453.2V392C839.2 348.1 550.8 348 267.5 391.9Z" fill="white"/>
<path d="M35.5 137.2V499.1C99.9 483.4 164.8 470.1 230 459.1V264L164.9 298.5V412.1C145.9 415.8 126.9 419.7 108 423.8V254.1C131.3 249.1 154.7 244.3 178.1 239.9C178.1 221.6 178.1 203.4 178.1 185.2C154.7 189.6 131.3 194.3 108 199.4V146.5L63.7 129.6C82.7 125.5 145.9 112.7 164.9 109.1V144.3L230 132.3V39.7C152.8 52.7 76.1 69 0 88.5L35.5 137.2Z" fill="white"/>
</svg>
