<?xml version="1.0" encoding="utf-8"?>
<!-- Generator: Adobe Illustrator 23.0.1, SVG Export Plug-In . SVG Version: 6.00 Build 0)  -->
<svg version="1.1" id="Group_17" xmlns="http://www.w3.org/2000/svg" xmlns:xlink="http://www.w3.org/1999/xlink" x="0px" y="0px"
	 viewBox="0 0 257.5 69.7" style="enable-background:new 0 0 257.5 69.7;" xml:space="preserve">
<style type="text/css">
	.st0{fill:#808285;}
	.st1{fill:#FFFFFF;}
	.st2{fill-rule:evenodd;clip-rule:evenodd;fill:#FF5100;}
	.st3{fill:#FF5100;}
</style>
<g id="Group_12">
	<g id="Group_10" transform="translate(0.651 5.806)">
		<path id="Path_5" class="st0" d="M27.4,39c1.4,0,2.8,0,4.2-0.2L50.4,36l5.1,3.5c0.3,0.2,0.6,0.3,0.9,0.2h0.5l10.5-3.5
			c0.6,0.5,1.2,1.1,1.6,1.9c0.4,0.5,0.7,1.2,0.7,1.9c-1.4-0.2-7.9-0.5-8.1-0.5h-0.2c-0.6,0-1.3,0.2-1.9,0.5l-8.6,4.4l13.7-1.6
			l-0.9,5.6l5.3-3.7l2.3,5.6l6.5-13l-6.3-7c-0.2-0.2-1.2,0.7-1.2,0.7l-0.9-2.1l0.9-2.1c0.1-0.8-0.3-1.6-0.9-2.1L44.4,4.9l-0.2,6.3
			v0.2l-0.5,0.5l-3.5-6.5l0,0c-0.8-1-2-1.6-3.3-1.9L20.3,0l12.5,11.4c0.5,0.2,0.5,0,0.5,0.5v1.4L1.9,23.7l36.9,1.4l-8.1-4.6h6.5
			c2,0.3,3.9,1.1,5.6,2.3c0.3,0.2,0.6,0.4,0.9,0.5l0.7,0.2l2.6-6l16,9.3h-1.6L60.2,29c-3.4-1-6.9-1.5-10.5-1.4c-1.2,0-2.5,0-3.7,0.2
			c-0.9,0-1.9,0.2-2.8,0.2c-4.3,0-8.6-0.7-12.8-2.1l-0.7,1.2c0.9,0.5,7.9,5.6,10.2,6.3l0,0l-7.2,1.6c-2,0.4-4,0.7-6,0.7
			c-4,0-8-0.9-11.6-2.8l-4.6-2.3c-0.7-0.4-1.5-0.5-2.3-0.5c-0.4,0-0.8,0-1.2,0.2l-6.5,1.2c-0.2,0-0.2,0.2-0.5,0.2
			c-0.2,0.7,0.5,0.7,0.9,0.7h6.5c0.7,0,1.4,0.2,2.1,0.5l5.6,2.8C18.9,38,23.1,39.1,27.4,39z"/>
		<path id="Path_6" class="st0" d="M77.6,62.2L77.6,62.2C77.3,62.1,77,62,76.7,62c-0.5,0-0.5-0.2-0.5-0.2c-1.4-0.6-2.4-2-2.6-3.5
			c-0.2-0.7-0.2-1.4-0.5-2.1c-0.3-1.1-1-2.1-1.9-2.8c0.2,0,0.5,0.2,0.7,0.2l0,0l2.3,0.7L73.7,53c0-0.1-0.1-0.2-0.2-0.2c0,0,0,0,0,0
			c-0.2-0.2-0.2-0.5-0.5-0.7c-1-1.5-2.6-2.6-4.4-2.8h-0.7c-0.9,0.1-1.7,0.2-2.6,0.5l-0.5,0.2c-0.2,0-0.7,0.2-0.9,0.2l0.7-0.7
			c0.2-0.2,0.2-0.2,0.2-0.5l0,0l0.5-1.2h-1.4c-0.2,0-0.7,0.2-0.9,0.2c-0.7,0.3-1.4,0.4-2.1,0.5c-0.5,0-0.9,0.2-1.6,0.2
			c-0.9,0-1.7-0.2-2.6-0.5c-0.9-0.4-1.6-1-2.3-1.6c-0.2-0.2-0.2-0.2-0.5-0.2L53,46v1.6c0.3,1.1,0.9,2.1,1.6,3c1,1.4,2.3,2.6,3.7,3.5
			l-0.9,0.5C56.8,54.9,56,55,55.3,55l0,0c-3.3,0-13-10.7-14.2-12.5c0.2-0.5,0.7-1.6,1.2-2.8l0.5-0.9h-0.9c-1.2-0.2-2.5-0.2-3.7-0.2
			c-3.3,0-7.7,0.2-10.9,1.9c-5.3,2.3-12.1,5.8-12.3,5.8l-3,1.4h3.5c0,0,5.3-0.2,13.2-0.2h0.9c7.7,0,16.3,7,17.2,7.9
			c-0.1,1.2-0.4,2.4-0.9,3.5c-0.9,1-2,1.8-3.3,2.3L40.7,62l2.1,0.2c3.1,0.4,6.2,0.6,9.3,0.5c4.4-0.2,9.8-4.4,10-4.6v-1.9
			c0.2,0.2,0.7,0.5,0.9,0.7c0.5,0.2,0.7,1.2,0.7,1.2H66c0,0,0.2-1.2,0.2-1.4V56c0.1,0,0.2,0.1,0.2,0.2c0,0,0,0,0,0
			c1,0.6,1.5,1.7,1.4,2.8c0,0.6-0.2,1.1-0.5,1.6c-0.3,0.4-0.7,0.7-0.9,1.2c0.5,0.2,1.1,0.2,1.6,0.2c0.9-0.2,1.7-0.7,2.3-1.4l0.2-0.2
			c0,0.2,0.2,0.2,0.2,0.5c1,1.9,3,3.1,5.1,3c0.9,0.1,1.9-0.3,2.6-0.9L77.6,62.2z M57.9,56.9l0.7-2.6c0.5,0.2,0.9,0.7,1.4,0.9
			s0.9,0.7,1.4,0.9L57.9,56.9z"/>
	</g>
	<path id="Path_7" class="st0" d="M49.5,0L0,65.5h83.8L49.5,0z"/>
	<path id="Path_8" d="M46.2,6.5L6.7,58.8h66.7L46.2,6.5z"/>
	<path id="Path_9" d="M55.7,23.7c2.2,2.4,4.6,4.7,7.2,6.7c0.7,0.7,4.4,0.5,4.9,1.4c0.7,1.6,0,2.8,0.9,4.4c0.9,1.9,2.3,3.7,3.3,5.8
		c0.5,0.9,0.9,2.1,0.2,2.8c-0.2,0.5-0.9,0.5-1.4,0.9c-0.5,0.5-0.7,0.9-1.2,1.4c-0.9,1.2-2.8,2.6-4.4,2.6c-1.9,0-3.3-2.1-4.9-3
		c-1-0.5-1.9-1-2.8-1.6c-0.8-0.5-1.4-1.2-1.6-2.1c-0.7-2.3,3-3.5,2.3-6.3c-0.2-1.2-1.9-2.3-2.6-3.5c-0.9-1.4-4.6-2.1-5.6-3.3
		c-1.2-1.6-0.9-3-2.3-4.9c-1.3-1.8-1.5-4-0.7-6c1.6,0.2,1.2,0.7,2.8,0.9c1,0.2,2,0.5,3,0.9c0.7,0.5,1.4,1.1,1.9,1.9
		C55,22.8,55.3,23.2,55.7,23.7z"/>
	<g id="Group_11" transform="translate(1.219 6.27)">
		<path id="Path_10" class="st1" d="M59.4,19.7"/>
		<path id="Path_11" class="st1" d="M76.6,36.2l-5.8,10.4l-1.9-4.2l-4.4,3l0.9-4.9L54.5,42l5.3-2.8c0.5-0.3,1.1-0.4,1.6-0.5
			c0,0,7.2,0.5,8.1,0.5s0.5-1.9-0.2-3c-0.6-0.7-1.2-1.3-1.9-1.9c-0.2-0.2-0.2-0.2-0.5-0.2l-10.5,3.7h-0.9l-5.3-3.5l-19,2.8
			c-5.5,0.9-11.1,0-16-2.6l-5.6-2.8c-0.8-0.4-1.7-0.6-2.6-0.5l-7,0.2c-0.2,0-0.2-0.2,0-0.2l6.5-1.2c1.2-0.2,2.4,0,3.5,0.5l4.6,2.3
			c5.7,2.8,12.2,3.5,18.3,2.1l7.2-1.6c0.7-0.2,1.6-0.9,0.2-1.4c-2.1-0.7-10.2-6.3-10.2-6.3c5.2,1.7,10.6,2.5,16,2.1
			c4.8-0.5,9.7,0,14.4,1.4l1.2-2.1l3.5-0.2L47.5,16.5c-0.2-0.2-0.6-0.2-0.8,0c-0.1,0.1-0.1,0.1-0.1,0.2l-2.3,5.3
			c-1.2-0.5-3.9-2.6-6.5-2.8s-9.1,0-9.1,0l7.9,4.4L5.3,22.1l28.6-9.8l0,0c0.2-0.8,0-1.8-0.7-2.3L22.5,0l14.2,3
			c1.1,0.3,2,0.8,2.8,1.6l3.9,7.2l1.2-0.9c0.2-0.2,0.3-0.4,0.2-0.7V5.1l23.9,18.1c0.5,0.4,0.7,1,0.5,1.6l-0.9,2.3l1.4,2.8l0.9-0.9
			c0.2-0.2,0.5-0.2,0.5,0L76.6,36.2z"/>
	</g>
	<path id="Path_12" class="st2" d="M60.8,64.3l1.2-1.9l-3.9,0.7l0.7-2.8c-0.8,0.4-1.7,0.7-2.6,0.7c-3.9,0-14.9-12.5-14.9-13
		c0.3-1,0.7-2.1,1.2-3c0,0-8.6-0.9-13.9,1.4c-5.3,2.3-12.3,5.8-12.3,5.8S22.1,52,30.4,52s17.4,7.9,17.6,8.4c0.2,0.7-0.5,2.8-0.9,3.9
		c-0.7,1.2-3.5,2.8-3.5,2.8c3,0.4,6,0.5,9.1,0.5C55.7,67.6,60.8,64.3,60.8,64.3L60.8,64.3z"/>
	<path id="Path_13" class="st3" d="M73.4,58.5c-1.1-0.7-2.5-0.7-3.7-0.2c-0.1,0-0.2,0.1-0.2,0.2c0,0,0,0,0,0h0.2
		c1.8,0.2,3.3,1.5,3.7,3.3c0.3,0.7,0.4,1.4,0.5,2.1c0.3,1.6,1.3,3,2.8,3.7c0.5,0.2,0.9,0.2,1.2,0.5H78l-0.2,0.2
		c-0.3,0-0.5,0.1-0.7,0.2C75,68.7,73,67.6,72,65.7l-0.7-1.4c-0.2,0.4-0.6,0.8-0.9,1.2c-0.5,0.6-1.1,1-1.9,1.2h-0.2
		c0-0.1,0.1-0.2,0.2-0.2c0,0,0,0,0,0c0.7-0.5,0.7-1.4,0.7-2.1c0.1-1.4-0.6-2.7-1.9-3.2c-0.5-0.2-0.7-0.5-1.2-0.5
		c-0.2,0-0.5,0-0.2,0.2c0.2,0.4,0.2,1,0,1.4c-0.2,0.6-0.5,1.2-0.9,1.6c-0.1,0-0.2,0.1-0.2,0.2c0,0,0,0,0,0v-0.2
		c-0.1-0.6-0.4-1.2-0.9-1.6c-0.9-0.7-1.9-1.2-2.8-1.9c-2.1-1.1-4-2.7-5.3-4.6c-0.7-0.8-1.2-1.8-1.4-2.8v-0.2c0.1,0,0.2,0.1,0.2,0.2
		c0,0,0,0,0,0c0.6,0.9,1.5,1.5,2.6,1.9c1.4,0.5,2.9,0.7,4.4,0.5c1.2-0.2,2.1-0.7,3.3-0.9h0.5c0,0.2-0.2,0.2-0.2,0.5
		c-0.7,0.7-1.5,1.2-2.3,1.6c-0.2,0.2-0.4,0.3-0.7,0.2l-0.2,0.2h1.6c1.2-0.2,2.1-0.7,3.3-0.9c1-0.3,2-0.4,3-0.5
		c1.6,0.2,3.1,1.2,3.9,2.6c0.3,0.3,0.5,0.7,0.5,1.2C73.8,58.5,73.6,58.5,73.4,58.5z"/>
</g>
<g id="Group_16" transform="translate(87.783 15.792)">
	<g id="Group_13" transform="translate(5.109)">
		<path id="Path_14" class="st3" d="M20.4,1.6h3.3v18.8h-3.3V1.6z M38.6,10c2.6,0,3.7-0.9,3.7-2.8c0-2.1-1.2-2.8-3.9-2.8h-1.6V10
			H38.6z M33.9,1.6h4.2c2.8,0,4.4,0.5,5.6,1.6c1,1,1.6,2.3,1.6,3.7c0.1,2.5-1.7,4.7-4.2,5.1l5.6,8.4h-3.5l-5.3-8.1h-0.9v8.1h-3V1.6z
			 M54.8,20.4h10.9v-2.8h-7.7v-6h7.7V8.8h-7.7V4.4h7.7V1.6H54.8V20.4z M12.3,4.4l1.2-2.6H1.9v7.2H0.9L0,11.6h2.1v9.1h2.6v-9.1h4.6
			l1.2-2.6H4.6V4.4L12.3,4.4z"/>
		<path id="Path_15" class="st1" d="M87.3,3c-1.4-0.9-3-1.4-4.6-1.4c-5.2-0.1-9.5,4.1-9.5,9.3c0,0.1,0,0.1,0,0.2
			c0,5.1,4.2,9.3,9.3,9.3c1.7,0,3.4-0.5,4.9-1.4v-3.3c-1.9,1.4-3,2.1-4.9,2.1c-3.8-0.1-6.8-3.2-6.7-7c0.1-3.7,3-6.6,6.7-6.7
			c1.9-0.1,3.6,0.7,4.9,2.1V3z M101,1.6h-2.8v11.8c-0.1,3.7,2.7,6.8,6.4,7c0.2,0,0.4,0,0.5,0c3.6,0.2,6.7-2.5,7-6.2
			c0-0.3,0-0.5,0-0.8V1.6h-2.8v11.1c0,1.9,0,2.6-0.7,3.3c-1.3,1.9-3.9,2.4-5.8,1.1c-0.5-0.3-0.8-0.7-1.1-1.1c-0.6-1-0.8-2.1-0.7-3.3
			L101,1.6z M134.7,3.3c-1.9-1.4-3.7-1.6-7-1.6h-5.1l-1.2,2.3h2.1v16.3h4.2c3.5,0,5.1-0.5,7-1.9c2.5-1.7,4-4.6,3.9-7.7
			C138.5,7.7,137,5,134.7,3.3L134.7,3.3z M132.8,16.3c-1.5,1-3.3,1.5-5.1,1.4h-1.4V3.9h1.4c1.8-0.1,3.6,0.4,5.1,1.4
			c1.7,1.3,2.6,3.4,2.6,5.6C135.7,13,134.7,15.2,132.8,16.3L132.8,16.3z M164.7,20.4h-3.3l-2.1-4.6l0,0l-1.2-2.8l0,0l-2.6-6.5
			l-3,6.5h2.6l1.2,2.8h-5.1l-2.1,4.6h-2.8l2.1-4.6h-2.6L147,13h2.5l6-13L164.7,20.4z"/>
	</g>
	<path id="COMPUTE_x5F_BADGE_1_" class="st2" d="M70.4,28.1c0,0-2.1,11.4-14.2,11.4H0c0,0,2.1-11.4,14.2-11.4H70.4z"/>
	<g id="Group_15" transform="translate(11.379 30.422)">
		<path id="Path_16" d="M6.3,6.3C5.8,6.5,5.4,6.7,4.9,6.7C4.4,6.7,3.9,7,3.5,7c-0.5,0-1,0-1.4-0.2C1.6,6.5,1.4,6.3,0.9,6
			C0.6,5.7,0.4,5.3,0.2,4.9C0,4.4,0,4,0,3.5c0-0.5,0-1,0.2-1.4c0.2-0.5,0.5-0.7,0.7-1.2c0.4-0.3,0.7-0.5,1.2-0.7
			C3-0.1,4-0.1,4.9,0.2C5.3,0.4,5.7,0.6,6,0.9L5.1,2.1C4.9,1.9,4.6,1.9,4.4,1.6c-0.2,0-0.5-0.2-0.9-0.2c-0.3,0-0.6,0.1-0.9,0.2
			c-0.2,0-0.5,0.2-0.7,0.5S1.6,2.6,1.4,2.8c0,0.2-0.2,0.5-0.2,0.9c0,0.3,0.1,0.6,0.2,0.9c0,0.2,0.2,0.5,0.5,0.7s0.5,0.2,0.7,0.5
			C2.8,5.8,3,6,3.5,6h0.7c0.2,0,0.3-0.1,0.5-0.2V4.9H3.5V3.5H6v2.8H6.3z"/>
		<path id="Path_17" d="M27.6,0.2H29v6.3h-1.4V0.2z"/>
		<path id="Path_18" d="M47.1,6.3c-0.4,0.3-0.9,0.4-1.4,0.5c-0.5,0-0.9,0.2-1.4,0.2c-0.5,0-1,0-1.4-0.2c-0.5-0.2-0.7-0.5-1.2-0.7
			c-0.3-0.4-0.5-0.7-0.7-1.2c-0.2-0.4-0.3-0.9-0.2-1.4c0-0.5,0-1,0.2-1.4c0.2-0.5,0.5-0.7,0.7-1.2c0.4-0.3,0.7-0.5,1.2-0.7
			c0.9-0.3,1.9-0.3,2.8,0c0.4,0.1,0.8,0.4,1.2,0.7L46,2.1c-0.2-0.2-0.5-0.2-0.7-0.5c-0.2,0-0.5-0.2-0.9-0.2c-0.3,0-0.6,0.1-0.9,0.2
			c-0.2,0-0.5,0.2-0.7,0.5s-0.2,0.5-0.5,0.7C42.3,3,42,3.3,42,3.7c0,0.3,0.1,0.6,0.2,0.9c0,0.2,0.2,0.5,0.5,0.7s0.5,0.2,0.7,0.5
			c0.2,0,0.5,0.2,0.9,0.2h0.7c0.2,0,0.3-0.1,0.5-0.2V4.9h-1.2V3.5h2.8V6.3z"/>
		<g id="Group_14" transform="translate(17.185 0.232)">
			<path id="Path_19" d="M0,0L0,0v6.5h1.4V4.2L0,0z"/>
			<path id="Path_20" d="M5.1,0L3.7,4.2l0,0L2.1,0H0.9l0.5,1.4l0,0l0.2,0.2L3,6.5h1.2l1.6-5.1l0,0v5.1h1.4V0H5.1z"/>
		</g>
		<path id="SURVEILLANCE_1_" d="M33.7,3.9v2.8h-1.4V1.6L33.7,3.9z M38.3,0.2v6.5h-1.9l-1.6-2.8l-1.2-1.9l0,0l-1.2-1.9h1.6l2.8,4.4
			l0,0V0.2H38.3z"/>
		<path id="Path_21" d="M12.8,3.9l-0.9-1.9l-0.7,1.9h0.7l0.5,1.4h-1.6l-0.5,1.4H8.6l0.5-1.4H8.1l0.7-1.4h0.9l1.6-3.7h1.2l2.8,6.5
			h-1.6l-0.5-1.4L12.8,3.9z"/>
	</g>
</g>
</svg>
