<svg width="102" height="26" viewBox="0 0 102 26" fill="none" xmlns="http://www.w3.org/2000/svg">
<path d="M38.2 13.8C38.4 14.1 38.5 14.4 38.5 14.8C38.5 15.1 38.4 15.5 38.3 15.7C38.2 16 38 16.2 37.8 16.4C37.6 16.6 37.3 16.7 37 16.8C36.7 16.9 36.4 17 36 17C35.5 17 35.1 16.9 34.7 16.8C34.3 16.6 34 16.4 33.7 16L34.5 15.3C34.7 15.6 34.9 15.8 35.2 15.9C35.5 16 35.8 16.1 36.1 16.1C36.3 16.1 36.4 16.1 36.6 16C36.8 15.9 36.9 15.9 37.1 15.8C37.2 15.7 37.4 15.6 37.4 15.4C37.5 15.2 37.5 15.1 37.5 14.9C37.5 14.6 37.4 14.4 37.2 14.3C37 14.2 36.8 14 36.5 13.9C36.2 13.8 35.9 13.7 35.6 13.6C35.3 13.5 35 13.4 34.7 13.2C34.4 13 34.2 12.8 34 12.5C33.8 12.2 33.7 11.8 33.7 11.4C33.7 11.2 33.7 11 33.8 10.7C33.9 10.5 34 10.2 34.2 10C34.4 9.80005 34.7 9.60005 35 9.50005C35.3 9.40005 35.7 9.30005 36.1 9.30005C36.5 9.30005 36.9 9.40005 37.2 9.50005C37.6 9.60005 37.9 9.80004 38.2 10.2L37.6 11C37.5 10.8 37.3 10.7 37.1 10.5C36.9 10.4 36.6 10.3 36.3 10.3C36 10.3 35.8 10.3 35.6 10.4C35.4 10.5 35.3 10.6 35.2 10.7C35.1 10.9 35 11 35 11.1C35 11.2 34.9 11.3 34.9 11.5C34.9 11.8 35 12 35.2 12.2C35.4 12.4 35.6 12.5 35.9 12.6C36.2 12.7 36.5 12.8 36.8 12.9C37.1 13 37.4 13.1 37.7 13.2C37.8 13.3 38 13.5 38.2 13.8ZM44.8 13.6H48.2V12.7H44.8V10.5H48.5V9.60004H43.8V16.9H48.7V16H44.8V13.6ZM57.2 9.60004L60.3 16.9H59.2L58.5 15.1H55L54.3 16.9H53.1L56.3 9.60004H57.2ZM58.1 14.2L56.7 10.9L55.3 14.2H58.1ZM68.7 13.7H70.3V15.7C70.1 15.8 69.8 15.9 69.5 16C69.2 16.1 68.9 16.1 68.5 16.1C68.1 16.1 67.7 16 67.4 15.9C67.1 15.8 66.8 15.5 66.5 15.3C66.2 15 66 14.7 65.9 14.4C65.8 14 65.7 13.7 65.7 13.3C65.7 12.9 65.8 12.5 65.9 12.2C66 11.8 66.2 11.5 66.5 11.3C66.7 11 67 10.8 67.4 10.7C67.7 10.5 68.1 10.5 68.5 10.5C68.9 10.5 69.2 10.6 69.6 10.7C69.9 10.8 70.3 11 70.6 11.3L71.3 10.5C71 10.2 70.7 10 70.2 9.80005C69.8 9.60005 69.2 9.50005 68.6 9.50005C68 9.50005 67.5 9.60005 67.1 9.80005C66.6 10 66.2 10.3 65.9 10.6C65.6 10.9 65.3 11.3 65.1 11.8C64.9 12.3 64.8 12.8 64.8 13.3C64.8 13.8 64.9 14.3 65.1 14.8C65.3 15.3 65.5 15.7 65.9 16C66.2 16.3 66.6 16.6 67.1 16.8C67.6 17 68.1 17.1 68.7 17.1C68.9 17.1 69.2 17.1 69.4 17.1C69.7 17.1 69.9 17 70.1 17C70.3 16.9 70.6 16.9 70.8 16.8C71 16.7 71.2 16.6 71.4 16.5V12.9H68.8V13.7H68.7ZM80.2 9.60004L83.3 16.9H82.2L81.5 15.1H78L77.3 16.9H76.2L79.4 9.60004H80.2ZM81.1 14.2L79.7 10.9L78.3 14.2H81.1ZM86.4 10.5H88.7V16.8H89.7V10.5H92V9.60004H86.3V10.5H86.4ZM98 13.6H101.4V12.7H98V10.5H101.7V9.60004H97V16.9H101.9V16H98V13.6Z" fill="white"/>
<path fill-rule="evenodd" clip-rule="evenodd" d="M13.8 25.1999C13.5 23.9999 13.2 22.9 12.9 21.8C13.2 21.6 13.5 21.5 13.8 21.4C15.2 20.8 16.6 20.0999 17.9 19.1999C19.5 18.0999 21 16.9 22.3 15.5C23.3 14.4 24.2 13.0999 24.7 11.6999C25 10.6999 25.2 9.69995 25 8.69995C24.9 7.89995 24.6 7.09995 24.1 6.39995C23.5 5.49995 22.8 4.89995 21.8 4.39995C20.6 3.79995 19.4 3.59995 18.1 3.59995C17 3.59995 15.9 3.89995 14.8 4.29995C12.8 4.99995 11 5.99995 9.3 7.19995C8.8 7.49995 8.3 7.89995 7.9 8.39995C7.7 8.59995 7.5 8.89995 7.4 9.29995C7.3 9.89995 7.6 10.3 8.2 10.3C8.6 10.3 9 10.2 9.3 9.99995C10.4 9.49995 11.4 8.79995 12.4 8.19995C13.2 7.69995 14.1 7.19995 15 6.79995C15.9 6.39995 16.8 6.19995 17.8 6.39995C18.9 6.59995 19.7 7.09995 20.2 7.99995C20.6 8.69995 20.6 9.39995 20.4 10.0999C20.2 10.8999 19.7 11.5999 19.1 12.1999C18.3 13.0999 17.4 13.8 16.4 14.4C15.3 15 14.3 15.6999 13.2 16.1999C11.9 16.8999 10.6 17.2999 9.2 17.6999C8 17.9999 6.9 18.1999 5.7 18.0999C4.7 17.9999 3.7 17.6999 2.9 17.0999C2.1 16.5999 1.6 15.9 1.3 15C0.800001 13.7 0.800002 12.3 1.1 11C1.5 9.49995 2.3 8.09995 3.2 6.89995C3.9 5.99995 4.8 5.09995 5.7 4.39995C7 3.29995 8.4 2.29995 9.8 1.49995C10.3 1.19995 10.8 0.999951 11.3 0.699951C11.5 0.999951 11.6 1.39995 11.8 1.69995C11.4 1.89995 10.9 2.19995 10.5 2.39995C8.7 3.39995 7 4.59995 5.5 6.09995C4.7 6.89995 4 7.79995 3.5 8.79995C3 9.89995 2.7 10.9999 2.8 12.1999C2.9 13.4999 3.6 14.4999 4.8 15.0999C5.5 15.4999 6.3 15.5999 7.1 15.5999C8.2 15.5999 9.2 15.3 10.2 14.9C11.7 14.4 13.1 13.6 14.5 12.8C15.3 12.3 16.1 11.7999 16.8 11.1999C17.2 10.8999 17.5 10.5 17.7 9.99995C18 9.09995 17.6 8.39995 16.6 8.29995C16.1 8.29995 15.6 8.39995 15.2 8.59995C14 9.09995 13 9.89995 11.9 10.5999C11.1 11.0999 10.2 11.6 9.3 12C8.7 12.2 8 12.4 7.3 12.3C6.1 12.2 5.4 11.2 5.5 9.99995C5.6 9.09995 6.1 8.29995 6.7 7.59995C7.4 6.79995 8.2 6.19995 9 5.69995C10.3 4.89995 11.6 4.09995 13.1 3.39995C14.7 2.69995 16.4 2.09995 18.2 1.89995C19.5 1.79995 20.8 1.89995 22.1 2.19995C23.2 2.49995 24.3 2.99995 25.2 3.69995C26.1 4.39995 26.9 5.19995 27.4 6.29995C27.9 7.19995 28.2 8.19995 28.3 9.19995C28.4 10.2999 28.3 11.4 27.9 12.4C27.6 13.4 27.2 14.4 26.6 15.3C26 16.6 25 17.7 24 18.8C22.9 19.8 21.8 20.8999 20.5 21.6999C18.9 22.7999 17.2 23.7999 15.3 24.5999C14.8 24.7999 14.3 24.9999 13.8 25.1999Z" fill="#71BB4B"/>
</svg>
