<?xml version="1.0" encoding="utf-8"?>
<!-- Generator: Adobe Illustrator 23.0.1, SVG Export Plug-In . SVG Version: 6.00 Build 0)  -->
<svg version="1.1" id="Layer_1" xmlns="http://www.w3.org/2000/svg" xmlns:xlink="http://www.w3.org/1999/xlink" x="0px" y="0px"
	 viewBox="0 0 1260 800" style="enable-background:new 0 0 1260 800;" xml:space="preserve">
<style type="text/css">
	.st0{fill:#F4F4F4;}
	.st1{fill-rule:evenodd;clip-rule:evenodd;}
</style>
<rect id="XMLID_169_" class="st0" width="1260" height="800"/>
<g id="XMLID_1_">
	<path id="XMLID_735_" d="M105.8,81.4c18.5,0,33.5,15,33.5,33.5s-15,33.5-33.5,33.5s-33.5-15-33.5-33.5S87.3,81.4,105.8,81.4
		 M105.8,77.4c-20.7,0-37.5,16.8-37.5,37.5s16.8,37.5,37.5,37.5s37.5-16.8,37.5-37.5S126.5,77.4,105.8,77.4L105.8,77.4z"/>
</g>
<g id="XMLID_11_">
	<path id="XMLID_731_" d="M105.8,195.5c18.5,0,33.5,15,33.5,33.5s-15,33.5-33.5,33.5s-33.5-15-33.5-33.5S87.3,195.5,105.8,195.5
		 M105.8,191.5c-20.7,0-37.5,16.8-37.5,37.5s16.8,37.5,37.5,37.5s37.5-16.8,37.5-37.5S126.5,191.5,105.8,191.5L105.8,191.5z"/>
</g>
<g id="XMLID_35_">
	<path id="XMLID_727_" d="M105.8,309.5c18.5,0,33.5,15,33.5,33.5s-15,33.5-33.5,33.5s-33.5-15-33.5-33.5S87.3,309.5,105.8,309.5
		 M105.8,305.5c-20.7,0-37.5,16.8-37.5,37.5c0,20.7,16.8,37.5,37.5,37.5s37.5-16.8,37.5-37.5C143.3,322.3,126.5,305.5,105.8,305.5
		L105.8,305.5z"/>
</g>
<g id="XMLID_36_">
	<path id="XMLID_723_" d="M105.8,423.5c18.5,0,33.5,15,33.5,33.5s-15,33.5-33.5,33.5s-33.5-15-33.5-33.5S87.3,423.5,105.8,423.5
		 M105.8,419.5c-20.7,0-37.5,16.8-37.5,37.5c0,20.7,16.8,37.5,37.5,37.5s37.5-16.8,37.5-37.5C143.3,436.3,126.5,419.5,105.8,419.5
		L105.8,419.5z"/>
</g>
<g id="XMLID_37_">
	<path id="XMLID_719_" d="M105.8,537.5c18.5,0,33.5,15,33.5,33.5s-15,33.5-33.5,33.5s-33.5-15-33.5-33.5S87.3,537.5,105.8,537.5
		 M105.8,533.5c-20.7,0-37.5,16.8-37.5,37.5c0,20.7,16.8,37.5,37.5,37.5s37.5-16.8,37.5-37.5C143.3,550.3,126.5,533.5,105.8,533.5
		L105.8,533.5z"/>
</g>
<g id="XMLID_56_">
	<path id="XMLID_715_" d="M105.8,651.6c18.5,0,33.5,15,33.5,33.5s-15,33.5-33.5,33.5s-33.5-15-33.5-33.5S87.3,651.6,105.8,651.6
		 M105.8,647.6c-20.7,0-37.5,16.8-37.5,37.5c0,20.7,16.8,37.5,37.5,37.5s37.5-16.8,37.5-37.5C143.3,664.4,126.5,647.6,105.8,647.6
		L105.8,647.6z"/>
</g>
<g id="XMLID_65_">
	<path id="XMLID_711_" d="M210.6,81.4c18.5,0,33.5,15,33.5,33.5s-15,33.5-33.5,33.5s-33.5-15-33.5-33.5S192.1,81.4,210.6,81.4
		 M210.6,77.4c-20.7,0-37.5,16.8-37.5,37.5s16.8,37.5,37.5,37.5s37.5-16.8,37.5-37.5S231.3,77.4,210.6,77.4L210.6,77.4z"/>
</g>
<g id="XMLID_63_">
	<path id="XMLID_707_" d="M210.6,195.5c18.5,0,33.5,15,33.5,33.5s-15,33.5-33.5,33.5s-33.5-15-33.5-33.5S192.1,195.5,210.6,195.5
		 M210.6,191.5c-20.7,0-37.5,16.8-37.5,37.5s16.8,37.5,37.5,37.5s37.5-16.8,37.5-37.5S231.3,191.5,210.6,191.5L210.6,191.5z"/>
</g>
<g id="XMLID_62_">
	<path id="XMLID_703_" d="M210.6,309.5c18.5,0,33.5,15,33.5,33.5s-15,33.5-33.5,33.5s-33.5-15-33.5-33.5S192.1,309.5,210.6,309.5
		 M210.6,305.5c-20.7,0-37.5,16.8-37.5,37.5c0,20.7,16.8,37.5,37.5,37.5s37.5-16.8,37.5-37.5C248.1,322.3,231.3,305.5,210.6,305.5
		L210.6,305.5z"/>
</g>
<g id="XMLID_60_">
	<path id="XMLID_699_" d="M210.6,423.5c18.5,0,33.5,15,33.5,33.5s-15,33.5-33.5,33.5s-33.5-15-33.5-33.5S192.1,423.5,210.6,423.5
		 M210.6,419.5c-20.7,0-37.5,16.8-37.5,37.5c0,20.7,16.8,37.5,37.5,37.5s37.5-16.8,37.5-37.5C248.1,436.3,231.3,419.5,210.6,419.5
		L210.6,419.5z"/>
</g>
<g id="XMLID_58_">
	<path id="XMLID_695_" d="M210.6,537.5c18.5,0,33.5,15,33.5,33.5s-15,33.5-33.5,33.5s-33.5-15-33.5-33.5S192.1,537.5,210.6,537.5
		 M210.6,533.5c-20.7,0-37.5,16.8-37.5,37.5c0,20.7,16.8,37.5,37.5,37.5s37.5-16.8,37.5-37.5C248.1,550.3,231.3,533.5,210.6,533.5
		L210.6,533.5z"/>
</g>
<g id="XMLID_57_">
	<path id="XMLID_691_" d="M210.6,651.6c18.5,0,33.5,15,33.5,33.5s-15,33.5-33.5,33.5s-33.5-15-33.5-33.5S192.1,651.6,210.6,651.6
		 M210.6,647.6c-20.7,0-37.5,16.8-37.5,37.5c0,20.7,16.8,37.5,37.5,37.5s37.5-16.8,37.5-37.5C248.1,664.4,231.3,647.6,210.6,647.6
		L210.6,647.6z"/>
</g>
<g id="XMLID_118_">
	<path id="XMLID_687_" d="M315.5,81.4c18.5,0,33.5,15,33.5,33.5s-15,33.5-33.5,33.5s-33.5-15-33.5-33.5S297,81.4,315.5,81.4
		 M315.5,77.4c-20.7,0-37.5,16.8-37.5,37.5s16.8,37.5,37.5,37.5c20.7,0,37.5-16.8,37.5-37.5S336.2,77.4,315.5,77.4L315.5,77.4z"/>
</g>
<g id="XMLID_116_">
	<path id="XMLID_683_" d="M315.5,195.5c18.5,0,33.5,15,33.5,33.5s-15,33.5-33.5,33.5S282,247.4,282,229S297,195.5,315.5,195.5
		 M315.5,191.5c-20.7,0-37.5,16.8-37.5,37.5s16.8,37.5,37.5,37.5c20.7,0,37.5-16.8,37.5-37.5S336.2,191.5,315.5,191.5L315.5,191.5z"
		/>
</g>
<g id="XMLID_113_">
	<path id="XMLID_679_" d="M315.5,309.5c18.5,0,33.5,15,33.5,33.5s-15,33.5-33.5,33.5S282,361.5,282,343S297,309.5,315.5,309.5
		 M315.5,305.5c-20.7,0-37.5,16.8-37.5,37.5c0,20.7,16.8,37.5,37.5,37.5c20.7,0,37.5-16.8,37.5-37.5
		C353,322.3,336.2,305.5,315.5,305.5L315.5,305.5z"/>
</g>
<g id="XMLID_69_">
	<path id="XMLID_675_" d="M315.5,423.5c18.5,0,33.5,15,33.5,33.5s-15,33.5-33.5,33.5S282,475.5,282,457S297,423.5,315.5,423.5
		 M315.5,419.5c-20.7,0-37.5,16.8-37.5,37.5c0,20.7,16.8,37.5,37.5,37.5c20.7,0,37.5-16.8,37.5-37.5
		C353,436.3,336.2,419.5,315.5,419.5L315.5,419.5z"/>
</g>
<g id="XMLID_67_">
	<path id="XMLID_671_" d="M315.5,537.5c18.5,0,33.5,15,33.5,33.5s-15,33.5-33.5,33.5S282,589.5,282,571S297,537.5,315.5,537.5
		 M315.5,533.5c-20.7,0-37.5,16.8-37.5,37.5c0,20.7,16.8,37.5,37.5,37.5c20.7,0,37.5-16.8,37.5-37.5
		C353,550.3,336.2,533.5,315.5,533.5L315.5,533.5z"/>
</g>
<g id="XMLID_66_">
	<path id="XMLID_667_" d="M315.5,651.6c18.5,0,33.5,15,33.5,33.5s-15,33.5-33.5,33.5s-33.5-15-33.5-33.5S297,651.6,315.5,651.6
		 M315.5,647.6c-20.7,0-37.5,16.8-37.5,37.5c0,20.7,16.8,37.5,37.5,37.5c20.7,0,37.5-16.8,37.5-37.5
		C353,664.4,336.2,647.6,315.5,647.6L315.5,647.6z"/>
</g>
<g id="XMLID_133_">
	<path id="XMLID_663_" d="M420.3,81.4c18.5,0,33.5,15,33.5,33.5s-15,33.5-33.5,33.5c-18.5,0-33.5-15-33.5-33.5
		S401.8,81.4,420.3,81.4 M420.3,77.4c-20.7,0-37.5,16.8-37.5,37.5s16.8,37.5,37.5,37.5c20.7,0,37.5-16.8,37.5-37.5
		S441,77.4,420.3,77.4L420.3,77.4z"/>
</g>
<g id="XMLID_124_">
	<path id="XMLID_659_" d="M420.3,195.5c18.5,0,33.5,15,33.5,33.5s-15,33.5-33.5,33.5c-18.5,0-33.5-15-33.5-33.5
		S401.8,195.5,420.3,195.5 M420.3,191.5c-20.7,0-37.5,16.8-37.5,37.5s16.8,37.5,37.5,37.5c20.7,0,37.5-16.8,37.5-37.5
		S441,191.5,420.3,191.5L420.3,191.5z"/>
</g>
<g id="XMLID_123_">
	<path id="XMLID_655_" d="M420.3,309.5c18.5,0,33.5,15,33.5,33.5s-15,33.5-33.5,33.5c-18.5,0-33.5-15-33.5-33.5
		S401.8,309.5,420.3,309.5 M420.3,305.5c-20.7,0-37.5,16.8-37.5,37.5c0,20.7,16.8,37.5,37.5,37.5c20.7,0,37.5-16.8,37.5-37.5
		C457.8,322.3,441,305.5,420.3,305.5L420.3,305.5z"/>
</g>
<g id="XMLID_122_">
	<path id="XMLID_651_" d="M420.3,423.5c18.5,0,33.5,15,33.5,33.5s-15,33.5-33.5,33.5c-18.5,0-33.5-15-33.5-33.5
		S401.8,423.5,420.3,423.5 M420.3,419.5c-20.7,0-37.5,16.8-37.5,37.5c0,20.7,16.8,37.5,37.5,37.5c20.7,0,37.5-16.8,37.5-37.5
		C457.8,436.3,441,419.5,420.3,419.5L420.3,419.5z"/>
</g>
<g id="XMLID_120_">
	<path id="XMLID_647_" d="M420.3,537.5c18.5,0,33.5,15,33.5,33.5s-15,33.5-33.5,33.5c-18.5,0-33.5-15-33.5-33.5
		S401.8,537.5,420.3,537.5 M420.3,533.5c-20.7,0-37.5,16.8-37.5,37.5c0,20.7,16.8,37.5,37.5,37.5c20.7,0,37.5-16.8,37.5-37.5
		C457.8,550.3,441,533.5,420.3,533.5L420.3,533.5z"/>
</g>
<g id="XMLID_119_">
	<path id="XMLID_643_" d="M420.3,651.6c18.5,0,33.5,15,33.5,33.5s-15,33.5-33.5,33.5c-18.5,0-33.5-15-33.5-33.5
		S401.8,651.6,420.3,651.6 M420.3,647.6c-20.7,0-37.5,16.8-37.5,37.5c0,20.7,16.8,37.5,37.5,37.5c20.7,0,37.5-16.8,37.5-37.5
		C457.8,664.4,441,647.6,420.3,647.6L420.3,647.6z"/>
</g>
<g id="XMLID_163_">
	<path id="XMLID_639_" d="M525.2,81.4c18.5,0,33.5,15,33.5,33.5s-15,33.5-33.5,33.5c-18.5,0-33.5-15-33.5-33.5
		S506.7,81.4,525.2,81.4 M525.2,77.4c-20.7,0-37.5,16.8-37.5,37.5s16.8,37.5,37.5,37.5c20.7,0,37.5-16.8,37.5-37.5
		S545.9,77.4,525.2,77.4L525.2,77.4z"/>
</g>
<g id="XMLID_162_">
	<path id="XMLID_635_" d="M525.2,195.5c18.5,0,33.5,15,33.5,33.5s-15,33.5-33.5,33.5c-18.5,0-33.5-15-33.5-33.5
		S506.7,195.5,525.2,195.5 M525.2,191.5c-20.7,0-37.5,16.8-37.5,37.5s16.8,37.5,37.5,37.5c20.7,0,37.5-16.8,37.5-37.5
		S545.9,191.5,525.2,191.5L525.2,191.5z"/>
</g>
<g id="XMLID_150_">
	<path id="XMLID_631_" d="M525.2,309.5c18.5,0,33.5,15,33.5,33.5s-15,33.5-33.5,33.5c-18.5,0-33.5-15-33.5-33.5
		S506.7,309.5,525.2,309.5 M525.2,305.5c-20.7,0-37.5,16.8-37.5,37.5c0,20.7,16.8,37.5,37.5,37.5c20.7,0,37.5-16.8,37.5-37.5
		C562.7,322.3,545.9,305.5,525.2,305.5L525.2,305.5z"/>
</g>
<g id="XMLID_149_">
	<path id="XMLID_627_" d="M525.2,423.5c18.5,0,33.5,15,33.5,33.5s-15,33.5-33.5,33.5c-18.5,0-33.5-15-33.5-33.5
		S506.7,423.5,525.2,423.5 M525.2,419.5c-20.7,0-37.5,16.8-37.5,37.5c0,20.7,16.8,37.5,37.5,37.5c20.7,0,37.5-16.8,37.5-37.5
		C562.7,436.3,545.9,419.5,525.2,419.5L525.2,419.5z"/>
</g>
<g id="XMLID_136_">
	<path id="XMLID_623_" d="M525.2,537.5c18.5,0,33.5,15,33.5,33.5s-15,33.5-33.5,33.5c-18.5,0-33.5-15-33.5-33.5
		S506.7,537.5,525.2,537.5 M525.2,533.5c-20.7,0-37.5,16.8-37.5,37.5c0,20.7,16.8,37.5,37.5,37.5c20.7,0,37.5-16.8,37.5-37.5
		C562.7,550.3,545.9,533.5,525.2,533.5L525.2,533.5z"/>
</g>
<g id="XMLID_134_">
	<path id="XMLID_619_" d="M525.2,651.6c18.5,0,33.5,15,33.5,33.5s-15,33.5-33.5,33.5c-18.5,0-33.5-15-33.5-33.5
		S506.7,651.6,525.2,651.6 M525.2,647.6c-20.7,0-37.5,16.8-37.5,37.5c0,20.7,16.8,37.5,37.5,37.5c20.7,0,37.5-16.8,37.5-37.5
		C562.7,664.4,545.9,647.6,525.2,647.6L525.2,647.6z"/>
</g>
<g id="XMLID_190_">
	<path id="XMLID_615_" d="M630,81.4c18.5,0,33.5,15,33.5,33.5s-15,33.5-33.5,33.5s-33.5-15-33.5-33.5S611.5,81.4,630,81.4 M630,77.4
		c-20.7,0-37.5,16.8-37.5,37.5s16.8,37.5,37.5,37.5s37.5-16.8,37.5-37.5S650.7,77.4,630,77.4L630,77.4z"/>
</g>
<g id="XMLID_189_">
	<path id="XMLID_611_" d="M630,195.5c18.5,0,33.5,15,33.5,33.5s-15,33.5-33.5,33.5s-33.5-15-33.5-33.5S611.5,195.5,630,195.5
		 M630,191.5c-20.7,0-37.5,16.8-37.5,37.5s16.8,37.5,37.5,37.5s37.5-16.8,37.5-37.5S650.7,191.5,630,191.5L630,191.5z"/>
</g>
<g id="XMLID_188_">
	<path id="XMLID_607_" d="M630,309.5c18.5,0,33.5,15,33.5,33.5s-15,33.5-33.5,33.5s-33.5-15-33.5-33.5S611.5,309.5,630,309.5
		 M630,305.5c-20.7,0-37.5,16.8-37.5,37.5c0,20.7,16.8,37.5,37.5,37.5s37.5-16.8,37.5-37.5C667.5,322.3,650.7,305.5,630,305.5
		L630,305.5z"/>
</g>
<g id="XMLID_187_">
	<path id="XMLID_603_" d="M630,423.5c18.5,0,33.5,15,33.5,33.5s-15,33.5-33.5,33.5s-33.5-15-33.5-33.5S611.5,423.5,630,423.5
		 M630,419.5c-20.7,0-37.5,16.8-37.5,37.5c0,20.7,16.8,37.5,37.5,37.5s37.5-16.8,37.5-37.5C667.5,436.3,650.7,419.5,630,419.5
		L630,419.5z"/>
</g>
<g id="XMLID_186_">
	<path id="XMLID_599_" d="M630,537.5c18.5,0,33.5,15,33.5,33.5s-15,33.5-33.5,33.5s-33.5-15-33.5-33.5S611.5,537.5,630,537.5
		 M630,533.5c-20.7,0-37.5,16.8-37.5,37.5c0,20.7,16.8,37.5,37.5,37.5s37.5-16.8,37.5-37.5C667.5,550.3,650.7,533.5,630,533.5
		L630,533.5z"/>
</g>
<g id="XMLID_196_">
	<path id="XMLID_595_" d="M734.8,81.4c18.5,0,33.5,15,33.5,33.5s-15,33.5-33.5,33.5c-18.5,0-33.5-15-33.5-33.5
		S716.4,81.4,734.8,81.4 M734.8,77.4c-20.7,0-37.5,16.8-37.5,37.5s16.8,37.5,37.5,37.5c20.7,0,37.5-16.8,37.5-37.5
		S755.6,77.4,734.8,77.4L734.8,77.4z"/>
</g>
<g id="XMLID_195_">
	<path id="XMLID_591_" d="M734.8,195.5c18.5,0,33.5,15,33.5,33.5s-15,33.5-33.5,33.5c-18.5,0-33.5-15-33.5-33.5
		S716.4,195.5,734.8,195.5 M734.8,191.5c-20.7,0-37.5,16.8-37.5,37.5s16.8,37.5,37.5,37.5c20.7,0,37.5-16.8,37.5-37.5
		S755.6,191.5,734.8,191.5L734.8,191.5z"/>
</g>
<g id="XMLID_194_">
	<path id="XMLID_587_" d="M734.8,309.5c18.5,0,33.5,15,33.5,33.5s-15,33.5-33.5,33.5c-18.5,0-33.5-15-33.5-33.5
		S716.4,309.5,734.8,309.5 M734.8,305.5c-20.7,0-37.5,16.8-37.5,37.5c0,20.7,16.8,37.5,37.5,37.5c20.7,0,37.5-16.8,37.5-37.5
		C772.3,322.3,755.6,305.5,734.8,305.5L734.8,305.5z"/>
</g>
<g id="XMLID_193_">
	<path id="XMLID_583_" d="M734.8,423.5c18.5,0,33.5,15,33.5,33.5s-15,33.5-33.5,33.5c-18.5,0-33.5-15-33.5-33.5
		S716.4,423.5,734.8,423.5 M734.8,419.5c-20.7,0-37.5,16.8-37.5,37.5c0,20.7,16.8,37.5,37.5,37.5c20.7,0,37.5-16.8,37.5-37.5
		C772.3,436.3,755.6,419.5,734.8,419.5L734.8,419.5z"/>
</g>
<g id="XMLID_192_">
	<path id="XMLID_579_" d="M734.8,537.5c18.5,0,33.5,15,33.5,33.5s-15,33.5-33.5,33.5c-18.5,0-33.5-15-33.5-33.5
		S716.4,537.5,734.8,537.5 M734.8,533.5c-20.7,0-37.5,16.8-37.5,37.5c0,20.7,16.8,37.5,37.5,37.5c20.7,0,37.5-16.8,37.5-37.5
		C772.3,550.3,755.6,533.5,734.8,533.5L734.8,533.5z"/>
</g>
<g id="XMLID_202_">
	<path id="XMLID_575_" d="M839.7,81.4c18.5,0,33.5,15,33.5,33.5s-15,33.5-33.5,33.5s-33.5-15-33.5-33.5S821.2,81.4,839.7,81.4
		 M839.7,77.4c-20.7,0-37.5,16.8-37.5,37.5s16.8,37.5,37.5,37.5c20.7,0,37.5-16.8,37.5-37.5S860.4,77.4,839.7,77.4L839.7,77.4z"/>
</g>
<g id="XMLID_201_">
	<path id="XMLID_542_" d="M839.7,195.5c18.5,0,33.5,15,33.5,33.5s-15,33.5-33.5,33.5s-33.5-15-33.5-33.5S821.2,195.5,839.7,195.5
		 M839.7,191.5c-20.7,0-37.5,16.8-37.5,37.5s16.8,37.5,37.5,37.5c20.7,0,37.5-16.8,37.5-37.5S860.4,191.5,839.7,191.5L839.7,191.5z"
		/>
</g>
<g id="XMLID_200_">
	<path id="XMLID_531_" d="M839.7,309.5c18.5,0,33.5,15,33.5,33.5s-15,33.5-33.5,33.5s-33.5-15-33.5-33.5S821.2,309.5,839.7,309.5
		 M839.7,305.5c-20.7,0-37.5,16.8-37.5,37.5c0,20.7,16.8,37.5,37.5,37.5c20.7,0,37.5-16.8,37.5-37.5
		C877.2,322.3,860.4,305.5,839.7,305.5L839.7,305.5z"/>
</g>
<g id="XMLID_199_">
	<path id="XMLID_527_" d="M839.7,423.5c18.5,0,33.5,15,33.5,33.5s-15,33.5-33.5,33.5s-33.5-15-33.5-33.5S821.2,423.5,839.7,423.5
		 M839.7,419.5c-20.7,0-37.5,16.8-37.5,37.5c0,20.7,16.8,37.5,37.5,37.5c20.7,0,37.5-16.8,37.5-37.5
		C877.2,436.3,860.4,419.5,839.7,419.5L839.7,419.5z"/>
</g>
<g id="XMLID_198_">
	<path id="XMLID_495_" d="M839.7,537.5c18.5,0,33.5,15,33.5,33.5s-15,33.5-33.5,33.5s-33.5-15-33.5-33.5S821.2,537.5,839.7,537.5
		 M839.7,533.5c-20.7,0-37.5,16.8-37.5,37.5c0,20.7,16.8,37.5,37.5,37.5c20.7,0,37.5-16.8,37.5-37.5
		C877.2,550.3,860.4,533.5,839.7,533.5L839.7,533.5z"/>
</g>
<g id="XMLID_208_">
	<path id="XMLID_484_" d="M944.5,81.4c18.5,0,33.5,15,33.5,33.5s-15,33.5-33.5,33.5s-33.5-15-33.5-33.5S926.1,81.4,944.5,81.4
		 M944.5,77.4c-20.7,0-37.5,16.8-37.5,37.5s16.8,37.5,37.5,37.5s37.5-16.8,37.5-37.5S965.3,77.4,944.5,77.4L944.5,77.4z"/>
</g>
<g id="XMLID_207_">
	<path id="XMLID_480_" d="M944.5,195.5c18.5,0,33.5,15,33.5,33.5s-15,33.5-33.5,33.5S911,247.4,911,229S926.1,195.5,944.5,195.5
		 M944.5,191.5c-20.7,0-37.5,16.8-37.5,37.5s16.8,37.5,37.5,37.5S982,249.7,982,229S965.3,191.5,944.5,191.5L944.5,191.5z"/>
</g>
<g id="XMLID_206_">
	<path id="XMLID_461_" d="M944.5,309.5c18.5,0,33.5,15,33.5,33.5s-15,33.5-33.5,33.5S911,361.5,911,343S926.1,309.5,944.5,309.5
		 M944.5,305.5c-20.7,0-37.5,16.8-37.5,37.5c0,20.7,16.8,37.5,37.5,37.5S982,363.7,982,343C982,322.3,965.3,305.5,944.5,305.5
		L944.5,305.5z"/>
</g>
<g id="XMLID_205_">
	<path id="XMLID_399_" d="M944.5,423.5c18.5,0,33.5,15,33.5,33.5s-15,33.5-33.5,33.5S911,475.5,911,457S926.1,423.5,944.5,423.5
		 M944.5,419.5c-20.7,0-37.5,16.8-37.5,37.5c0,20.7,16.8,37.5,37.5,37.5S982,477.7,982,457C982,436.3,965.3,419.5,944.5,419.5
		L944.5,419.5z"/>
</g>
<g id="XMLID_204_">
	<path id="XMLID_363_" d="M944.5,537.5c18.5,0,33.5,15,33.5,33.5s-15,33.5-33.5,33.5S911,589.5,911,571S926.1,537.5,944.5,537.5
		 M944.5,533.5c-20.7,0-37.5,16.8-37.5,37.5c0,20.7,16.8,37.5,37.5,37.5S982,591.8,982,571C982,550.3,965.3,533.5,944.5,533.5
		L944.5,533.5z"/>
</g>
<g id="XMLID_237_">
	<path id="XMLID_359_" d="M1049.4,81.4c18.5,0,33.5,15,33.5,33.5s-15,33.5-33.5,33.5s-33.5-15-33.5-33.5S1030.9,81.4,1049.4,81.4
		 M1049.4,77.4c-20.7,0-37.5,16.8-37.5,37.5s16.8,37.5,37.5,37.5c20.7,0,37.5-16.8,37.5-37.5S1070.1,77.4,1049.4,77.4L1049.4,77.4z"
		/>
</g>
<g id="XMLID_213_">
	<path id="XMLID_355_" d="M1049.4,195.5c18.5,0,33.5,15,33.5,33.5s-15,33.5-33.5,33.5s-33.5-15-33.5-33.5S1030.9,195.5,1049.4,195.5
		 M1049.4,191.5c-20.7,0-37.5,16.8-37.5,37.5s16.8,37.5,37.5,37.5c20.7,0,37.5-16.8,37.5-37.5S1070.1,191.5,1049.4,191.5
		L1049.4,191.5z"/>
</g>
<g id="XMLID_212_">
	<path id="XMLID_351_" d="M1049.4,309.5c18.5,0,33.5,15,33.5,33.5s-15,33.5-33.5,33.5s-33.5-15-33.5-33.5S1030.9,309.5,1049.4,309.5
		 M1049.4,305.5c-20.7,0-37.5,16.8-37.5,37.5c0,20.7,16.8,37.5,37.5,37.5c20.7,0,37.5-16.8,37.5-37.5
		C1086.9,322.3,1070.1,305.5,1049.4,305.5L1049.4,305.5z"/>
</g>
<g id="XMLID_211_">
	<path id="XMLID_344_" d="M1049.4,423.5c18.5,0,33.5,15,33.5,33.5s-15,33.5-33.5,33.5s-33.5-15-33.5-33.5S1030.9,423.5,1049.4,423.5
		 M1049.4,419.5c-20.7,0-37.5,16.8-37.5,37.5c0,20.7,16.8,37.5,37.5,37.5c20.7,0,37.5-16.8,37.5-37.5
		C1086.9,436.3,1070.1,419.5,1049.4,419.5L1049.4,419.5z"/>
</g>
<g id="XMLID_210_">
	<path id="XMLID_340_" d="M1049.4,537.5c18.5,0,33.5,15,33.5,33.5s-15,33.5-33.5,33.5s-33.5-15-33.5-33.5S1030.9,537.5,1049.4,537.5
		 M1049.4,533.5c-20.7,0-37.5,16.8-37.5,37.5c0,20.7,16.8,37.5,37.5,37.5c20.7,0,37.5-16.8,37.5-37.5
		C1086.9,550.3,1070.1,533.5,1049.4,533.5L1049.4,533.5z"/>
</g>
<g id="XMLID_254_">
	<path id="XMLID_301_" d="M1154.2,81.4c18.5,0,33.5,15,33.5,33.5s-15,33.5-33.5,33.5c-18.5,0-33.5-15-33.5-33.5
		S1135.8,81.4,1154.2,81.4 M1154.2,77.4c-20.7,0-37.5,16.8-37.5,37.5s16.8,37.5,37.5,37.5s37.5-16.8,37.5-37.5
		S1175,77.4,1154.2,77.4L1154.2,77.4z"/>
</g>
<g id="XMLID_253_">
	<path id="XMLID_291_" d="M1154.2,195.5c18.5,0,33.5,15,33.5,33.5s-15,33.5-33.5,33.5c-18.5,0-33.5-15-33.5-33.5
		S1135.8,195.5,1154.2,195.5 M1154.2,191.5c-20.7,0-37.5,16.8-37.5,37.5s16.8,37.5,37.5,37.5s37.5-16.8,37.5-37.5
		S1175,191.5,1154.2,191.5L1154.2,191.5z"/>
</g>
<g id="XMLID_252_">
	<path id="XMLID_283_" d="M1154.2,309.5c18.5,0,33.5,15,33.5,33.5s-15,33.5-33.5,33.5c-18.5,0-33.5-15-33.5-33.5
		S1135.8,309.5,1154.2,309.5 M1154.2,305.5c-20.7,0-37.5,16.8-37.5,37.5c0,20.7,16.8,37.5,37.5,37.5s37.5-16.8,37.5-37.5
		C1191.7,322.3,1175,305.5,1154.2,305.5L1154.2,305.5z"/>
</g>
<g id="XMLID_240_">
	<path id="XMLID_269_" d="M1154.2,423.5c18.5,0,33.5,15,33.5,33.5s-15,33.5-33.5,33.5c-18.5,0-33.5-15-33.5-33.5
		S1135.8,423.5,1154.2,423.5 M1154.2,419.5c-20.7,0-37.5,16.8-37.5,37.5c0,20.7,16.8,37.5,37.5,37.5s37.5-16.8,37.5-37.5
		C1191.7,436.3,1175,419.5,1154.2,419.5L1154.2,419.5z"/>
</g>
<g id="XMLID_239_">
	<path id="XMLID_257_" d="M1154.2,537.5c18.5,0,33.5,15,33.5,33.5s-15,33.5-33.5,33.5c-18.5,0-33.5-15-33.5-33.5
		S1135.8,537.5,1154.2,537.5 M1154.2,533.5c-20.7,0-37.5,16.8-37.5,37.5c0,20.7,16.8,37.5,37.5,37.5s37.5-16.8,37.5-37.5
		C1191.7,550.3,1175,533.5,1154.2,533.5L1154.2,533.5z"/>
</g>
<path id="XMLID_110_" d="M851.9,215.2c-5.1-0.2-8.6,2.7-10.4,8.5c0.9-0.4,1.8-0.6,2.7-0.6c1.9,0,2.7,1,2.5,3.1
	c-0.1,1.3-0.9,3.1-2.5,5.5c-1.5,2.4-2.7,3.6-3.5,3.6c-1,0-1.9-1.8-2.7-5.5c-0.3-1.1-0.8-3.9-1.5-8.3c-0.7-4.1-2.4-6.1-5.3-5.8
	c-1.2,0.1-3,1.2-5.4,3.3c-1.8,1.6-3.6,3.2-5.4,4.7l1.7,2.2c1.7-1.1,2.6-1.7,2.9-1.7c1.3,0,2.4,2,3.5,5.9c1,3.6,2,7.2,3,10.8
	c1.5,3.9,3.3,5.9,5.4,5.9c3.5,0,7.7-3.2,12.7-9.6c4.8-6.1,7.3-11,7.5-14.5C857.5,217.7,855.7,215.3,851.9,215.2z"/>
<path id="Twitter_2_" d="M228.4,102c-1.5,0.9-3.1,1.5-4.8,1.9c-1.4-1.5-3.3-2.4-5.5-2.4c-4.2,0-7.5,3.5-7.5,7.7
	c0,0.6,0.1,1.2,0.2,1.8c-6.3-0.3-11.8-3.4-15.5-8.1c-0.6,1.1-1,2.5-1,3.9c0,2.7,1.3,5,3.3,6.4c-1.2,0-2.4-0.4-3.4-1v0.1
	c0,3.7,2.6,6.9,6,7.6c-0.6,0.2-1.3,0.3-2,0.3c-0.5,0-1,0-1.4-0.1c1,3.1,3.7,5.3,7,5.4c-2.6,2.1-5.8,3.3-9.3,3.3
	c-0.6,0-1.2,0-1.8-0.1c3.3,2.2,7.3,3.5,11.5,3.5c13.8,0,21.4-11.8,21.4-21.9c0-0.3,0-0.7,0-1c1.5-1.1,2.7-2.4,3.8-4
	c-1.3,0.6-2.8,1-4.3,1.2C226.7,105.3,227.9,103.8,228.4,102z"/>
<g id="XMLID_20_">
	<rect id="XMLID_102_" x="1138.2" y="220.7" width="7.4" height="23.5"/>
	<path id="XMLID_101_" d="M1165.9,220.4c-4.2,0-6.9,2.3-7.4,3.9v-3.7h-8.3c0.1,2,0,23.5,0,23.5h8.3v-12.7c0-0.7,0-1.4,0.2-1.9
		c0.6-1.4,1.8-2.9,4-2.9c2.9,0,4.2,2.2,4.2,5.4v12.2h8.4v-13.1C1175.3,223.8,1171.2,220.4,1165.9,220.4z"/>
	<path id="XMLID_100_" d="M1141.8,209.6c-2.7,0-4.5,1.8-4.5,4.1c0,2.3,1.7,4.1,4.4,4.1h0.1c2.8,0,4.5-1.8,4.5-4.1
		C1146.2,211.3,1144.5,209.6,1141.8,209.6z"/>
</g>
<g id="XMLID_125_">
	<path id="XMLID_94_" d="M626.7,114.5c0.9-0.4,1.5-0.9,1.9-1.4c0.8-0.9,1.2-2.2,1.2-3.7c0-1.5-0.4-2.8-1.2-3.8
		c-1.3-1.7-3.5-2.6-6.6-2.7h-12.2v25h11.4c1.3,0,2.5-0.1,3.6-0.3c1.1-0.2,2.1-0.6,2.9-1.3c0.7-0.5,1.3-1.2,1.8-2
		c0.8-1.2,1.1-2.5,1.1-4c0-1.4-0.3-2.7-1-3.7C628.9,115.7,628,115,626.7,114.5z M614.9,107.2h5.5c1.2,0,2.2,0.1,3,0.4
		c0.9,0.4,1.4,1.1,1.4,2.3c0,1-0.3,1.8-1,2.2c-0.7,0.4-1.6,0.6-2.7,0.6h-6.2V107.2z M623.6,123.1c-0.6,0.3-1.5,0.4-2.6,0.4h-6.2
		v-6.7h6.2c1.1,0,1.9,0.2,2.5,0.4c1.1,0.5,1.6,1.4,1.6,2.7C625.2,121.5,624.7,122.6,623.6,123.1z"/>
	<rect id="XMLID_93_" x="636" y="104.1" width="10.9" height="3.1"/>
	<path id="XMLID_90_" d="M649.1,112.5c-0.8-1.2-1.9-2.2-3.2-2.7c-1.3-0.6-2.8-0.9-4.4-0.9c-2.7,0-5,0.9-6.7,2.6
		c-1.7,1.7-2.6,4.2-2.6,7.4c0,3.4,0.9,5.9,2.9,7.4c1.9,1.5,4.1,2.3,6.6,2.3c3,0,5.4-0.9,7-2.7c1.1-1.1,1.7-2.2,1.8-3.3h-5
		c-0.3,0.5-0.6,1-1,1.3c-0.7,0.6-1.6,0.8-2.7,0.8c-1.1,0-2-0.2-2.7-0.7c-1.2-0.7-1.9-2-2-3.9h13.7c0-1.6,0-2.8-0.2-3.7
		C650.4,114.9,649.9,113.6,649.1,112.5z M637.3,116.8c0.2-1.2,0.6-2.2,1.3-2.9c0.7-0.7,1.7-1.1,2.9-1.1c1.2,0,2.1,0.3,2.9,1
		c0.8,0.7,1.2,1.6,1.3,2.9H637.3z"/>
</g>
<path id="Dribbble_2_" d="M540.2,108.1c-0.4-1-1-2-1.6-2.9c-0.6-0.9-1.3-1.7-2.1-2.5c-0.8-0.8-1.6-1.5-2.5-2.1
	c-0.9-0.6-1.9-1.1-2.9-1.6c-1-0.4-2.1-0.8-3.2-1c-1.1-0.2-2.3-0.3-3.4-0.3c-1.2,0-2.3,0.1-3.4,0.3c-1.1,0.2-2.2,0.6-3.2,1
	c-1,0.4-2,1-2.9,1.6c-0.9,0.6-1.7,1.3-2.5,2.1c-0.8,0.8-1.5,1.6-2.1,2.5c-0.6,0.9-1.1,1.9-1.6,2.9c-0.4,1-0.8,2.1-1,3.2
	c-0.2,1.1-0.3,2.3-0.3,3.4c0,1.2,0.1,2.3,0.3,3.4c0.2,1.1,0.6,2.2,1,3.2c0.4,1,1,2,1.6,2.9c0.6,0.9,1.3,1.7,2.1,2.5
	c0.8,0.8,1.6,1.5,2.5,2.1c0.9,0.6,1.9,1.1,2.9,1.6c1,0.4,2.1,0.8,3.2,1c1.1,0.2,2.3,0.3,3.4,0.3c1.2,0,2.3-0.1,3.4-0.3
	c1.1-0.2,2.2-0.6,3.2-1c1-0.4,2-1,2.9-1.6c0.9-0.6,1.7-1.3,2.5-2.1c0.8-0.8,1.5-1.6,2.1-2.5c0.6-0.9,1.1-1.9,1.6-2.9
	c0.4-1,0.8-2.1,1-3.2c0.2-1.1,0.3-2.3,0.3-3.4c0-1.2-0.1-2.3-0.3-3.4C540.9,110.2,540.6,109.1,540.2,108.1z M524.5,100.2
	c3.7,0,7,1.4,9.6,3.6c0,0.1-2.1,3.2-7.6,5.3c-2.5-4.6-5.2-8.2-5.4-8.5C522.2,100.3,523.3,100.2,524.5,100.2z M521,100.6
	C521,100.6,521,100.6,521,100.6C521,100.6,521,100.6,521,100.6C521,100.6,521,100.6,521,100.6z M518.3,101.6
	c0.2,0.3,2.9,3.9,5.4,8.4c-7,1.9-13,1.8-13.4,1.8C511.2,107.2,514.3,103.5,518.3,101.6z M513.7,124.4c-2.3-2.6-3.7-6-3.7-9.7
	c0-0.2,0-0.3,0-0.5c0.3,0,7.4,0.2,14.9-2.1c0.4,0.8,0.8,1.6,1.2,2.5c-0.2,0.1-0.4,0.1-0.6,0.2C517.7,117.4,513.7,124.4,513.7,124.4
	C513.7,124.4,513.7,124.4,513.7,124.4z M524.5,129.2c-3.4,0-6.6-1.2-9.1-3.2c-0.1,0-0.1-0.1-0.2-0.1c0.1,0.1,0.1,0.1,0.2,0.1
	c0.1,0.1,0.1,0.1,0.1,0.1s2.8-6.1,11.4-9.1c0,0,0.1,0,0.1,0c2,5.3,2.9,9.8,3.1,11C528.4,128.8,526.5,129.2,524.5,129.2z
	 M532.6,126.8c-0.1-0.9-0.9-5.1-2.8-10.4c4.7-0.7,8.7,0.5,9,0.6C538.2,121.1,535.9,124.6,532.6,126.8z M528.9,114.1
	c-0.1-0.2-0.2-0.5-0.3-0.7c-0.3-0.7-0.6-1.4-1-2.1c5.7-2.3,8.1-5.7,8.1-5.7c2,2.5,3.3,5.6,3.3,9.1
	C538.8,114.5,533.9,113.5,528.9,114.1z"/>
<g id="XMLID_112_">
	<path id="XMLID_117_" d="M427.8,97.7h-16.1c-4.9,0-9,4.1-9,9.2v15.7c0,5,4,9.2,9,9.2h16.1c4.9,0,9-4.1,9-9.2v-15.7
		C436.7,101.8,432.7,97.7,427.8,97.7z M433.7,122.3c0,3.5-2.8,6.3-6.2,6.3H412c-3.4,0-6.2-2.9-6.2-6.3v-15.2c0-3.5,2.8-6.3,6.2-6.3
		l15.5,0c3.4,0,6.2,2.9,6.2,6.3V122.3z"/>
	<path id="XMLID_114_" d="M419.7,106c-4.7,0-8.5,3.9-8.5,8.7c0,4.8,3.8,8.7,8.5,8.7s8.5-3.9,8.5-8.7
		C428.3,109.9,424.4,106,419.7,106z M419.7,120.3c-3,0-5.5-2.5-5.5-5.6c0-3.1,2.5-5.6,5.5-5.6c3,0,5.5,2.5,5.5,5.6
		C425.2,117.8,422.8,120.3,419.7,120.3z"/>
	<ellipse id="XMLID_71_" cx="428.7" cy="105.5" rx="1.9" ry="2"/>
</g>
<g id="XMLID_310_">
	<polygon id="XMLID_311_" points="112.5,115.9 97,115.9 97,108.8 113.7,108.8 	"/>
	<path id="Facebook_3_" d="M100.6,104c0,0.9,0,28.5,0,28.5h7.1c0,0,0-26.8,0-27.4c0-0.8,0.4-1.2,1.2-1.2c1.6,0,3.2,0,4.8,0
		c0-0.9,0-4.4,0-7.1c-2.1,0-4.4,0-5.5,0C100.4,96.8,100.6,103.1,100.6,104z"/>
</g>
<g id="XMLID_70_">
	<path id="XMLID_142_" d="M316.8,324c-10.7,0-16,7.4-16,13.7c0,3.8,1.3,7.1,4.5,8.4c0.5,0.2,1,0,1.1-0.5c0.1-0.4,0.4-1.4,0.5-1.8
		c0.2-0.5,0.1-0.7-0.3-1.2c-0.9-1-1.5-2.4-1.5-4.3c0-5.5,4.3-10.5,11.1-10.5c6.1,0,9.4,3.6,9.4,8.4c0,6.3-2.9,12-7.2,12
		c-2.4,0-4.1-2.3-3.6-4.6c0.7-2.8,2.3-5.8,2.3-7.8c0-1.8-1.1-2.9-3.3-2.9c-2.8,0-4.3,2-4.3,5.3c0,2.1,0.6,3.5,0.6,3.5
		s-2.7,10.1-2.9,11.9c-0.4,3.7-0.1,7.9-0.1,8.3c0,0.3,0.4,0.3,0.5,0.1c0.2-0.3,3.1-3.7,4.1-7.2c0.3-1,1.6-6,1.6-6
		c0.8,1.4,3.1,3.1,5.5,3.1c7.3,0,12.1-6.8,12.1-15.4C331,330.1,325.5,324,316.8,324z"/>
</g>
<path id="XMLID_214_" class="st1" d="M227.1,339.3c-0.7-0.4-3.8,0-4.6-0.7c-0.6-0.6-0.7-1.5-0.9-2.9c-0.3-2.6-0.6-2.7-1-3.6
	c-1.5-3.1-5.5-5.8-8.4-5.8h-7.9c-5.5,0-10,4.4-10,10.1l-0.1,12.4c0,6.7,4.5,11.2,10.7,11.2h12.3c6.1,0,10.7-4.5,10.7-11.2v-8
	C228,340.7,228,339.8,227.1,339.3z M204.4,335.2h6.7c1.2,0,2.2,1,2.2,2.2s-1,2.2-2.2,2.2h-6.7c-1.2,0-2.2-1-2.2-2.2
	S203.2,335.2,204.4,335.2z M216.7,352.1h-12.4c-1.2,0-2.2-1-2.2-2.2c0-1.2,1-2.2,2.2-2.2h12.4c1.2,0,2.2,1,2.2,2.2
	C219,351,218,352.1,216.7,352.1z"/>
<g id="XMLID_334_">
	<path id="XMLID_336_" d="M315.6,667.1c-9.5,0-17.9,13.1-17.9,23.6c0,0,3.5,7.7,18.6,7.7c13.8,0,17.5-7.7,17.5-7.7
		S331.1,667.1,315.6,667.1z M331.1,689.9c-0.1,0.5-1.2,2.1-3.7,3.6c-2.5,1.5-9.5,2.8-17.4,1.8c-7.9-1-9.8-5.9-9.8-5.9
		c0.3-3.6,4.5-8.7,5.2-9.6c1.9-1.8,3.6,0.3,4.9,1.7c2,2.2,3.2,0.7,3.8,0.1c1-1.1,2.8-3.3,4.8-5.9c1.7-2.2,3.8-0.1,4.9,1.1
		c3.3,3.2,6.6,9.3,7,10.7C331,688.4,331.2,689.5,331.1,689.9z"/>
	<path id="XMLID_335_" d="M321.6,678c-0.8-0.2-1.5,0-2.2,0.8c-2,2.4-3.8,4.6-4.8,5.6c-0.6,0.5-1.7,2-3.8-0.1c-1-1-2.3-1.7-3.6-1.6
		c1.9,1,2.7,3.7,3.3,4.7c1.5,2.1,3.5,1.2,4.6,0c1.7-1.7,4.3-6,5.1-7.7C320.6,678.7,321.1,678.2,321.6,678z"/>
</g>
<g id="XMLID_328_">
	<path id="XMLID_333_" d="M518.1,567.5c0.2,2.4-1.3,4.4-3.2,4.6c-2,0.1-3.7-1.7-3.9-4.1c-0.2-2.4,1.3-4.4,3.2-4.6
		C516.1,563.2,517.9,565.1,518.1,567.5z"/>
	<path id="XMLID_332_" d="M539.4,569.4c0.2,2.4-1.3,4.4-3.2,4.6c-2,0.1-3.7-1.7-3.9-4.1c-0.2-2.4,1.3-4.4,3.2-4.6
		C537.5,565.2,539.3,567,539.4,569.4z"/>
	<path id="XMLID_331_" d="M525.2,560.7c0.2,2.4-1.3,4.4-3.2,4.6c-2,0.1-3.7-1.7-3.9-4.1c-0.2-2.4,1.3-4.4,3.2-4.6
		C523.3,556.5,525,558.3,525.2,560.7z"/>
	<path id="XMLID_330_" d="M533.2,562.6c-0.4,2.4-2.4,3.8-4.3,3.6c-1.9-0.2-3-2.6-2.6-5c0.4-2.4,2.4-4,4.3-3.6
		C532.6,558,533.7,560.2,533.2,562.6z"/>
	<path id="XMLID_329_" d="M521,570.4c-1.1,1.5-2.3,2.9-4.7,4.8c-2.4,1.9-3.3,3.2-3.3,5.1c0,1.9,1,5.4,4.3,5.4c2.8,0,4.9-1,7.5-1
		c2.4,0,4.5,1,7.7,1c2.9,0,4.9-2.9,4.9-4.9c0-1.9-0.8-3-3.5-5.2c-1.7-1.4-3.1-2.5-5.4-5.5c-1.1-1.5-2.4-1.9-3.7-1.9
		C523.5,568.2,522.1,568.9,521,570.4z"/>
</g>
<path id="XMLID_325_" d="M420.8,554.4l-13.3,8.9v2.2l13.5,8.9l7.7-4.9v6.4l-7.9,5.2l-8.9-5.6l-4.4,3.4l13.3,8.8l13.3-8.9v-15.6
	L420.8,554.4z M420.9,568.1l-5.3-3.7l5.1-3.4l5.4,3.6L420.9,568.1z"/>
<g id="XMLID_316_">
	<path id="XMLID_321_" d="M835.2,578.5c0.7,0.7,1.1,1.6,1.1,2.5c0,1-0.4,1.9-1.1,2.5l0,0c-0.7,0.7-1.6,1.1-2.5,1.1
		c-1,0-1.9-0.4-2.5-1.1c-0.7-0.7-1.1-1.5-1.1-2.5c0-1,0.4-1.9,1.1-2.5l0,0c0.7-0.7,1.5-1.1,2.5-1.1
		C833.6,577.4,834.5,577.8,835.2,578.5z"/>
	<polygon id="XMLID_320_" points="835.2,578.5 835.2,578.5 835.2,578.5 	"/>
	<polygon id="XMLID_319_" points="830.1,583.5 830.1,583.5 830.1,583.5 	"/>
	<path id="XMLID_318_" d="M829,566.6v5.2c3.4,0,6.5,1.3,8.9,3.7c2.4,2.4,3.7,5.6,3.7,9h0v0h5.2c0-5-2-9.5-5.2-12.7
		C838.4,568.6,834,566.6,829,566.6z"/>
	<path id="XMLID_317_" d="M829.1,557.6v5.2c12,0,21.8,9.8,21.8,21.8h5.2c0-7.4-3-14.2-7.9-19.1C843.2,560.6,836.5,557.6,829.1,557.6
		z"/>
</g>
<g id="XMLID_298_">
	<ellipse id="XMLID_300_" cx="218.4" cy="563.8" rx="10.6" ry="8.4"/>
	<path id="XMLID_299_" d="M218.6,578.3c-1.9,0-3.5-0.1-5.2-0.5l-7.8,4.5l1.1-7.8c-3.6-2.1-5.7-6.5-5.7-10.6c0-3.2,1.3-6.1,3.4-8.5
		h-5.6c-2.2,0-3.4,1.1-3.4,3.4v26.5c0,2.3,1.1,3.4,3.4,3.4h26.8c2.2,0,3.4-1.1,3.4-3.4v-9.8C226.1,577.4,222.5,578.3,218.6,578.3z"
		/>
</g>
<g id="XMLID_287_">
	<path id="XMLID_289_" d="M953.4,334.6c-4.7,0-8.5,3.8-8.5,8.5c0,4.7,3.8,8.5,8.5,8.5c4.7,0,8.5-3.8,8.5-8.5
		C961.8,338.4,958.1,334.6,953.4,334.6z"/>
	<path id="XMLID_288_" d="M934,334.6c-4.7,0-8.5,3.8-8.5,8.5c0,4.7,3.8,8.5,8.5,8.5c4.7,0,8.5-3.8,8.5-8.5
		C942.5,338.4,938.7,334.6,934,334.6z"/>
</g>
<g id="XMLID_23_">
	<path id="XMLID_281_" d="M417.2,688.4c0.7-0.2,1.1-0.7,1.1-1.5c0-0.8-0.4-1.4-1-1.7c0,0-1.8-0.7-1.8-0.7c-6.3-2.5-6.6-2.6-6.9-2.6
		c-0.5,0-0.9,0.2-1.2,0.7c-0.6,1-0.9,4.1-0.7,6.1c0.1,0.7,0.2,1.2,0.4,1.6c0.3,0.5,0.7,0.7,1.2,0.8c0.3,0,0.5,0,6.4-1.9
		C414.6,689.2,417.2,688.4,417.2,688.4z"/>
	<path id="XMLID_280_" d="M419.9,691.2c-0.7-0.3-1.5-0.1-2,0.4c0,0-1.3,1.5-1.3,1.5c-4.4,5.1-4.6,5.4-4.7,5.6c-0.2,0.4,0,1,0.3,1.3
		c1.1,1.1,5.9,2.9,7.6,2.7c0.6-0.1,0.9-0.4,1.1-0.8c0.1-0.3,0.1-0.5,0.1-6.6c0,0,0-2.7,0-2.7C421,692,420.6,691.4,419.9,691.2z"/>
	<path id="XMLID_279_" d="M434.9,692.8c-0.3-0.2-0.4-0.3-6.4-2.1c0,0-2.6-0.8-2.6-0.8c-0.6-0.2-1.4,0-1.8,0.6
		c-0.5,0.6-0.6,1.4-0.2,1.9l1,1.6c3.5,5.4,3.8,5.8,4.1,6c0.4,0.3,0.9,0.3,1.4,0.1c1.5-0.6,4.8-4.5,5-6.1
		C435.4,693.5,435.3,693.1,434.9,692.8z"/>
	<path id="XMLID_278_" d="M425.7,685.7c0,0,0.9-0.2,1.9-0.5c6.6-1.6,6.9-1.7,7.2-1.9c0.4-0.3,0.6-0.7,0.6-1.3c0,0,0,0,0-0.1
		c-0.2-1.6-3-5.9-4.4-6.6c-0.5-0.2-1-0.2-1.4,0.1c-0.3,0.2-0.4,0.4-4,5.3c0,0-1.6,2.2-1.6,2.2c-0.4,0.5-0.4,1.3,0,1.9
		C424.3,685.6,425,685.9,425.7,685.7z"/>
	<path id="XMLID_277_" d="M420.1,664.5c-0.1-0.5-0.5-0.8-1.1-1c-1.7-0.4-8.2,1.4-9.4,2.6c-0.4,0.4-0.5,0.9-0.4,1.3
		c0.2,0.4,8.2,12.8,8.2,12.8c1.2,1.9,2.2,1.6,2.5,1.5c0.3-0.1,0.9-0.3,0.9-2.5C420.8,676.5,420.2,665.1,420.1,664.5z"/>
</g>
<path id="XMLID_272_" class="st1" d="M962.7,569c-0.5-3.6-2.7-6.7-6.4-7.5c-3-0.6-5.5,0-7.8,1.8c-1.3,1-2.3,2.2-3.4,3.5
	c-0.2,0.3-0.4,0.6-0.7,0.8c0,0,0,0,0,0l0,0c0,0,0,0,0,0c-0.2-0.3-0.5-0.6-0.7-0.8c-1-1.3-2.1-2.5-3.4-3.5c-2.4-1.8-4.9-2.4-7.8-1.8
	c-3.8,0.7-5.8,4-6.4,7.5c-0.1,0.5-0.1,1-0.2,1.4c0,0.3,0,0.6,0,0.9c0,0.1,0,0.2,0,0.3c0,1.1,0.3,2.2,0.6,3.3
	c1.5,4.4,5.1,6.3,9.1,5.9c1.5-0.2,2.9-0.8,4.3-1.7c1.4-0.9,2.6-2.1,3.7-3.4c0.3-0.3,0.5-0.6,0.8-0.9l0,0c0.3,0.3,0.5,0.6,0.8,0.9
	c1.1,1.3,2.3,2.5,3.7,3.4c1.3,0.9,2.7,1.5,4.3,1.7c3.9,0.4,7.5-1.4,9.1-5.9c0.4-1.1,0.6-2.2,0.6-3.3c0-0.1,0-0.2,0-0.3
	c0-0.3,0-0.6,0-0.9C962.8,570,962.8,569.5,962.7,569z M934.6,576c-1.6,0-2.7-0.9-3.3-2.5c-0.4-0.9-0.4-2.7-0.2-3.7
	c0.3-1.7,1.2-3.7,3.6-3.7c1.6,0,6.2,3.6,7.4,4.9C941.1,572.2,936.6,576,934.6,576z M957.6,573.5c-0.6,1.6-1.7,2.5-3.3,2.5
	c-2,0-6.5-3.8-7.4-4.9c1.2-1.3,5.8-4.9,7.4-4.9c2.4,0,3.3,2,3.6,3.7C958,570.8,958,572.6,957.6,573.5z"/>
<g id="XMLID_265_">
	<polygon id="XMLID_266_" points="519.8,668.6 534,668.6 528.8,680.2 539.2,678.9 517.2,707.2 523.7,687.9 513.4,689.2 	"/>
</g>
<path id="XMLID_248_" d="M720.6,557.4v27.3h27.3v-27.3H720.6z M733.3,570.2h-10.9v-10.9h10.9V570.2z M746.1,582.9h-10.9V572h10.9
	V582.9z"/>
<g id="XMLID_241_">
	<circle id="XMLID_247_" class="st1" cx="644.8" cy="564.9" r="6.2"/>
	<circle id="XMLID_246_" class="st1" cx="629.7" cy="567.7" r="6.2"/>
	<circle id="XMLID_245_" class="st1" cx="615.4" cy="569.7" r="5.5"/>
	<path id="XMLID_244_" class="st1" d="M620.8,583.4V582c0-3-2.5-5.5-5.5-5.5c-3,0-5.5,2.5-5.5,5.5v1.4H620.8z"/>
	<path id="XMLID_243_" class="st1" d="M623.6,583.4v-2.1c0-3.4,2.8-6.2,6.2-6.2c3.4,0,6.2,2.8,6.2,6.2v2.1H623.6z"/>
	<path id="XMLID_242_" class="st1" d="M638.6,583.4v-4.8c0-3.4,2.8-6.2,6.2-6.2s6.2,2.8,6.2,6.2v4.8H638.6z"/>
</g>
<path id="XMLID_182_" d="M644.3,217.9c-0.3-1.5-1.2-2.2-2-2.5c-0.9-0.3-2.7-0.6-4.9-0.9c-1.8-0.2-3.9-0.2-5.2-0.2
	c-0.2-1-0.9-1.9-1.7-2.3c-2.2-0.9-5.6-0.6-6.5-0.4c-0.7,0.2-1.5,0.4-1.9,1c-0.3,0.4-0.2,1-0.2,1.8c0,0.4,0,1.3,0,2.2c0,0.8,0,1,0,1
	c0,1.2-1.2,2.4-2.5,2.4c0,0-4.1,0-4.9,0c-1.1,0-1.4,2-1.1,4.9c0.2,1.9,1.3,7.4,2.3,9.4c0.4,0.8,0.5,1.1,1.2,1.6
	c4.2,3.1,9,2.9,11,1.2c0,0,1.3-1,1.2-5.6c0-0.1,0.3-0.1,0.3,0c0,0.8-0.2,3.6,2,4.4c0.9,0.3,2.7,0.6,4.5,0.8c1.7,0.2,3,0.1,3,4.2
	c0,2.7-0.1,3.7-3.7,3.7c-2.1,0-3,0-3-1.8c0-1.4,1.5-1.3,2.5-1.3c0.5,0,0.1-0.3,0.1-1.2c0-0.9,0.6-1.4,0-1.4
	c-3.7-0.1-5.8,0.3-5.8,4.5c0,3.9,1.5,4.9,6.8,4.9c4.2,0,5.6-0.1,7.4-5.3c0.3-1,1.7-4.2,1.7-9.4C645.2,230.1,644.8,220.4,644.3,217.9
	z M635.4,229.9c0,0-0.1-2.5,2.5-2.5c0,0,2.5,0,2.5,2.5C640.3,229.9,638.3,228.6,635.4,229.9z"/>
<g id="XMLID_177_">
	<path id="XMLID_181_" d="M216.3,700.9c0,0-2.4-6.5-7.9-9.1c0,0-3.4,5.7-13.6,5.7l-1-6.8c0,0,8.9-1.1,10.1-5.7c0,0,1.1-7.8,6.8-10.2
		c0,0,2.9,7.2,13.6,3.4l1.1,6.8c0,0-3.4,1.1-10.2,1.1c0,0,5.3,4,7.9,12.5"/>
	<g id="XMLID_178_">
		<circle id="XMLID_309_" cx="214.7" cy="673.1" r="6.2"/>
	</g>
</g>
<g id="XMLID_108_">
	<path id="XMLID_348_" d="M326.6,571.1v5.2c0,1-0.8,1.7-1.7,1.7s-1.7-0.8-1.7-1.7v-5.2l-3.5,1.2l-2.3-1.2v5.2c0,4.1,3.4,7.5,7.5,7.5
		s7.5-3.3,7.5-7.5v-5.2H326.6z"/>
	<path id="XMLID_176_" d="M314.5,558.4c-4.1,0-7.5,3.4-7.5,7.5v5.2v5.2c0,1-0.8,1.7-1.7,1.7c-1,0-1.7-0.8-1.7-1.7v-5.2h-5.8v5.2
		c0,4.1,3.4,7.5,7.5,7.5s7.4-3.4,7.4-7.5l0.1-5.2v-5.2c0-1,0.8-1.7,1.7-1.7c1,0,1.7,0.8,1.7,1.7v1.7l2.3,1.2l3.5-1.2v-1.7
		C322,561.8,318.6,558.4,314.5,558.4z"/>
</g>
<g id="XMLID_156_">
	<circle id="XMLID_161_" cx="1040.1" cy="570.6" r="5.5"/>
	<circle id="XMLID_160_" cx="1059.1" cy="580.6" r="5.5"/>
	<circle id="XMLID_159_" cx="1059.1" cy="561.6" r="5.5"/>
	<polygon id="XMLID_158_" points="1058.6,563.1 1041.5,573.1 1039.6,569.6 1056.6,559.6 	"/>
	<polygon id="XMLID_157_" points="1058.6,578.1 1041.5,568.1 1039.6,571.6 1056.6,581.6 	"/>
</g>
<g id="XMLID_151_">
	<path id="XMLID_155_" d="M1162.7,574.7c-0.1-0.2-0.4-0.3-0.8-0.5c-0.4-0.2-2.4-1.2-2.8-1.3c-0.4-0.1-0.6-0.2-0.9,0.2
		c-0.3,0.4-1.1,1.3-1.3,1.6c-0.2,0.3-0.5,0.3-0.9,0.1c-0.4-0.2-1.7-0.6-3.3-2c-1.2-1.1-2-2.4-2.3-2.8c-0.2-0.4,0-0.6,0.2-0.8
		c0.2-0.2,0.4-0.5,0.6-0.7c0.2-0.2,0.3-0.4,0.4-0.7c0.1-0.3,0.1-0.5,0-0.7c-0.1-0.2-0.9-2.2-1.3-3c-0.3-0.8-1.4-0.7-1.7-0.7
		c-0.3,0-0.7,0.2-1.1,0.5c-0.4,0.4-1.4,1.4-1.4,3.4c0,2,1.5,3.9,1.7,4.2c0.2,0.3,3.1,4.4,7.2,6.1c3.9,1.6,4.7,1.4,5.5,1.2
		c0.7-0.2,1.6-1.1,1.9-2.1C1162.8,575.7,1162.8,574.9,1162.7,574.7L1162.7,574.7z"/>
	<path id="XMLID_152_" d="M1153.9,554.5c-9.2,0-16.6,7.4-16.6,16.6c0,2.9,0.8,5.7,2.1,8.1l-2.1,8.5l8.5-2.1c2.4,1.3,5.2,2.1,8.1,2.1
		c9.2,0,16.6-7.4,16.6-16.6C1170.5,561.9,1163,554.5,1153.9,554.5z M1153.9,585.5c-2.9,0-5.6-0.9-7.8-2.3l0,0l0,0l0,0l-2.9,0.6l0,0
		l-2.6,0.6l1.3-5.2l0,0l0-0.1c-1.5-2.3-2.4-5-2.4-8c0-7.9,6.5-14.4,14.4-14.4c7.9,0,14.4,6.5,14.4,14.4
		C1168.3,579,1161.8,585.5,1153.9,585.5z"/>
</g>
<g id="XMLID_145_">
	<g id="XMLID_146_">
		<path id="XMLID_147_" class="st1" d="M1160.3,445.1c0-0.7,0-0.8,0.5-0.4c0.8,0.5,1.6,1,2.3,1.5c2.2,1.7,4.6,2.7,7.3,3.1
			c0.6,0.1,1.2,0.1,1.8,0.1c0.5,0,0.8,0.2,0.8,0.7c0.1,0.8-0.1,1.6-0.6,2.3c-1,1.4-2.2,2.4-3.7,3.1c-0.3,0.1-0.4,0.3-0.4,0.6
			c0,2.3,0,4.1-0.6,6c-1.7,5.1-5.2,8.5-10.2,9.9c-5.2,1.5-10,0.5-14.2-3.1c-2.7-2.3-4.5-5.4-5-9.1c-0.6-5.4,0.9-9.7,4.8-13.3
			c2.2-2.1,4.9-3.3,7.8-3.8c2.3-0.3,4.5-0.2,6.6,0.4c0.3,0.1,0.3,0.2,0.3,0.6c0,2.7,0,5.3,0,8.1c0,0.5-0.4,0.5-0.3,0.5
			c-1.2-0.5-2.4-0.8-3.7-0.8c-1.9,0-3.6,0.7-5,2c-0.9,0.8-1.6,1.7-2.1,2.8c-1.1,2.6,0.1,6.5,3.7,7.2c4.1,0.9,8-1.3,9.6-5.3
			c0.2-0.4,0.3-1.6,0.3-1.9C1160.3,454.5,1160.4,449.7,1160.3,445.1z"/>
	</g>
</g>
<path id="XMLID_439_" class="st1" d="M105.7,667.5c-9.8,0-17.8,8-17.8,17.8c0,9.8,8,17.8,17.8,17.8c9.8,0,17.8-8,17.8-17.8
	C123.5,675.4,115.5,667.5,105.7,667.5z M104.6,672.3c0.1-0.5,0.3-1.3,1.1-1.3c0.8,0,1,0.9,1.1,1.3c0.5,1.6,0.9,3.2,1.2,4.6
	c0,1.4-1,2.4-2.3,2.4c-1.3,0-2.5-1-2.4-2.2C103.5,675.5,104.1,674,104.6,672.3z M110.8,699.8c-1.7,0.6-3.4,1-4.7,0.9
	c-4.1,0-7.3-1.1-10-3.5c-2.1-1.9-3.5-4.2-3.4-7.3c0.1-3,2.1-5.3,5.1-6.1c0.7-0.2,1.4-0.2,2.1-0.4c0.5-0.1,0.8,0,0.6,0.7
	c-0.3,1,0,1.2,0.9,1.1c3.5-0.4,6.7-1.3,9.8-3.1c0.6-0.4,1.3-0.8,1.8-1.3c0.4-0.4,0.8-0.4,1.2-0.1c2.6,1.7,4.2,4.1,4.6,7.2
	C119.4,694,115,698.3,110.8,699.8z M115.2,690c-0.7,0-1.2,0.5-1.2,1.2c0,0.7,0.5,1.2,1.2,1.2c0.7,0,1.2-0.5,1.2-1.2
	C116.4,690.6,115.8,690,115.2,690z M96.2,690c-0.7,0-1.2,0.5-1.2,1.2c0,0.7,0.5,1.2,1.2,1.2c0.7,0,1.2-0.5,1.2-1.2
	C97.4,690.6,96.8,690,96.2,690z M107.5,692.9c-1.1,0.8-2.6,0.8-3.7,0c-0.3-0.2-0.7-0.3-1-0.1c-0.3,0.2-0.2,0.7,0.2,1.1
	c1.4,1.2,3.7,1.2,5.2,0c0.4-0.3,0.5-0.9,0.2-1.1C108.2,692.6,107.8,692.7,107.5,692.9z"/>
<g id="XMLID_218_">
	<g id="XMLID_231_">
		<path id="XMLID_236_" d="M546.4,353.5h-10c-0.3,0-0.5,0.2-0.5,0.5v2.5h10.5V353.5z"/>
		<path id="XMLID_235_" d="M547.4,356.5h-4v-7.5h4.5v7C547.9,356.3,547.7,356.5,547.4,356.5z"/>
		<path id="XMLID_232_" d="M536.7,335.6c-0.4,0-0.7,0.3-0.7,0.7v14.2h12v-14.9H536.7z M543.4,346.8c0,0.4-0.3,0.7-0.7,0.7h-2.2v-8.2
			c0-0.4,0.3-0.7,0.7-0.7h2.2V346.8z"/>
	</g>
	<g id="XMLID_225_">
		<path id="XMLID_230_" d="M533,353.5h-10c-0.3,0-0.5,0.2-0.5,0.5v2.5H533V353.5z"/>
		<path id="XMLID_229_" d="M534,356.5h-4v-7.5h4.5v7C534.5,356.3,534.3,356.5,534,356.5z"/>
		<path id="XMLID_226_" d="M523.3,335.6c-0.4,0-0.7,0.3-0.7,0.7v14.2h12v-14.9H523.3z M530,346.8c0,0.4-0.3,0.7-0.7,0.7H527v-8.2
			c0-0.4,0.3-0.7,0.7-0.7h2.2V346.8z"/>
	</g>
	<path id="XMLID_224_" d="M511.1,329.6h4v7.5h-4.5v-7C510.6,329.9,510.8,329.6,511.1,329.6z"/>
	<path id="XMLID_223_" d="M520.5,350.5h-4v-14.4c0-0.3,0.2-0.5,0.5-0.5h4V350C521,350.3,520.8,350.5,520.5,350.5z"/>
	<path id="XMLID_220_" d="M503.8,335.6c-0.4,0-0.7,0.3-0.7,0.7v14.2h11.2c0.4,0,0.7-0.3,0.7-0.7v-14.2H503.8z M510.6,346.8
		c0,0.4-0.3,0.7-0.7,0.7h-2.2v-8.2c0-0.4,0.3-0.7,0.7-0.7h2.2V346.8z"/>
	<path id="XMLID_219_" d="M520.5,332.6h-4v-2.5c0-0.3,0.2-0.5,0.5-0.5h4v2.5C521,332.4,520.8,332.6,520.5,332.6z"/>
</g>
<g id="XMLID_290_">
	<path id="Path_3_" d="M413.3,213.7c-4.3,1.6-7.2,5-8,9.4c-0.5,2.7-0.2,5.6,0.9,8.2c0.2,0.6,0.6,1.1,1,1.6c0.2,0.2,0.9,0.7,1.7,0.2
		c1.4-0.9,2.7-2.1,4-3.1c-4.2-4.8,0-10.8,5.5-12.1c5.1-1.2,12.1,0.9,13.6,6.2c0.6,2.2,0.2,4.6-1.6,6.2c-0.9,0.8-2.1,1.4-3.4,1.6
		c-0.7,0.1-1.5,0.2-2.2,0.1c-0.4,0-2-0.3-2-1.1c0-1.9,0-3.8,0-5.8c0-1,0-1.8,0-2.8c0-0.6-0.4-0.6-0.9-0.6c-0.4,0-0.8-0.1-1.2-0.1
		c-1.4-0.1-4.6-0.4-4.6-0.4v2.2c0,0,0,2.3,0,3.3c0,3.2,0,6.8,0,10c0,1.1-0.1,2.8-1.1,3.4c-1.5,0.8-3.3-0.2-4.5-1.2
		c0.1,2.5,0.9,4.3,2.2,5.6c1.1,1,3.6,1.2,5.3,0.8c3.9-1,4.7-5.3,4.7-9c5.8,1.5,12.2-1.1,14.6-6.5c1.7-3.7,1-8.5-1.7-11.7
		C430.7,212,420.5,211,413.3,213.7z"/>
</g>
<path id="XMLID_339_" d="M440,353.8c-0.1-0.2-0.8-1.8-4.1-5c-3.5-3.4-3-2.8,1.2-8.7c2.5-3.6,3.6-5.7,3.2-6.7
	c-0.2-0.6-2.2-0.4-2.2-0.4H432c0,0-1,0-1.4,0.6c-0.7,1.2-1,2.8-2.3,5.1c-2.8,5-3.9,5.2-4.3,4.9c-1.1-0.7-0.8-2.9-0.8-4.4
	c0-4.8,0.7-6.8-1.3-7.3c-0.7-0.2-1.1-0.2-2.9-0.3c-2.3,0.1-4.1,0-5.2,0.6c-0.7,0.4-1.3,1.2-0.9,1.2c0.4,0.1,1.3,0.3,1.8,1
	c0.6,0.9,0.6,3,0.6,3s0.4,5.6-0.9,6.3c-0.8,0.5-2-0.5-4.5-5c-1.3-2.3-1.4-3.8-2.2-4.8c-0.5-0.7-1.5-0.9-1.5-0.9h-5.9
	c0,0-1-0.1-1.2,0.2c-0.3,0.4,0,1.1,0,1.1s4.6,11.4,9.9,17.1c4.8,5.3,10.3,5,10.3,5s3.2,0.1,3.6-0.6c0.3-0.3,0.3-1.1,0.3-1.1
	s0-3.5,1.5-4c1.5-0.5,3.5,3.4,5.5,4.9c1.6,1.1,2,0.9,2.8,0.9c1.5,0,5.5,0,5.5,0S441.4,356.2,440,353.8z"/>
<g id="XMLID_350_">
	<g id="XMLID_369_">
		<path id="XMLID_374_" d="M954.3,233.8l-1.2-1.9c-0.4-0.6-0.6-1.3-0.6-1.9V222c0-3.2,0.2-9.9-8.8-9.9c-7.3,0-9.6,3.9-10.3,6.3
			c-0.3,1,0.4,1.9,1.4,2l2.8,0.3c0.7,0.1,1.3-0.3,1.6-0.9c0.6-1.2,1.5-2.9,4.5-2.9c1.1,0,2.8,0.5,2.8,1.9c0,2.1,0,3,0,3
			c0,0.4-0.3,0.8-0.8,0.8h-2.8c-2.1,0-10.1,1.1-10.1,9c0,8,8.4,7,9,6.9c1-0.2,3-1,4.8-2.7c0.3-0.3,0.8-0.3,1.1,0.1l1.5,1.8
			c0.6,0.7,1.6,0.8,2.3,0.2l2.4-2.3C954.6,235.3,954.7,234.4,954.3,233.8L954.3,233.8z M942.1,233.3c-2.8,0-2.7-2.6-2.1-3.8
			c0.6-1.1,2.2-3.1,6.6-3.3l0,2.1c0,1.6-0.7,3.1-2,4C943.8,232.9,942.9,233.3,942.1,233.3L942.1,233.3z M942.1,233.3"/>
		<path id="XMLID_371_" d="M923.4,240.6c-0.4-0.4,0-1.1,0.6-0.8c3.7,1.8,10.5,4.6,18.1,4.6c7.8,0,14.3-1.9,17.5-3
			c0.5-0.2,0.9,0.5,0.5,0.9c-2.6,2.1-8.2,5.4-17.8,5.4C932.7,247.6,926.5,243.3,923.4,240.6L923.4,240.6z M923.4,240.6"/>
	</g>
	<path id="XMLID_364_" d="M956.2,239.5c1-0.8,3.5-2,7.3-0.9c0.3,0.1,0.6,0.4,0.6,0.8c0,1.2-0.3,4.1-2.7,6.5c-0.2,0.2-0.5,0-0.4-0.2
		c0.4-1.5,1.3-4.8,1-5.2c-0.3-0.5-4.1-0.5-5.7-0.5C956.2,239.9,956.1,239.6,956.2,239.5L956.2,239.5z M956.2,239.5"/>
</g>
<g id="XMLID_379_">
	<g id="XMLID_380_">
		<path id="XMLID_382_" d="M736.2,95.3c1.5-1.7,4-3,6-3.1c0.3,2.4-0.7,4.8-2.1,6.6c-1.4,1.7-3.8,3.1-6.1,2.9
			C733.7,99.3,734.9,96.8,736.2,95.3L736.2,95.3z M748,128.2c-1.7,2.5-3.5,5-6.3,5.1c-2.7,0.1-3.6-1.6-6.8-1.6
			c-3.1,0-4.1,1.6-6.7,1.7c-2.7,0.1-4.7-2.7-6.5-5.2c-3.5-5.1-6.2-14.4-2.6-20.7c1.8-3.1,5-5.1,8.5-5.2c2.7,0,5.2,1.8,6.8,1.8
			c1.6,0,4.7-2.2,7.9-1.9c1.3,0.1,5.1,0.5,7.5,4.1c-0.2,0.1-4.5,2.6-4.4,7.8c0.1,6.2,5.4,8.3,5.5,8.3
			C750.8,122.5,749.9,125.3,748,128.2L748,128.2z M748,128.2"/>
	</g>
</g>
<g id="XMLID_381_">
	<g id="XMLID_386_">
		<path id="XMLID_388_" d="M851.9,324.9c-0.8-1-2-1.5-3.3-1.5h-19.5c-2.4,0-4.3,1.9-4.3,4.3v33c0,0.8,0.5,1.6,1.3,1.8
			c0.2,0.1,0.5,0.1,0.7,0.1c0.6,0,1.1-0.2,1.5-0.7l10.4-11.8h7c2.1,0,3.9-1.5,4.3-3.6l2.9-18.2C853.1,327.2,852.7,325.9,851.9,324.9
			L851.9,324.9z M847.1,334.5h-9.2c-1.1,0-2,0.9-2,2c0,1.1,0.9,1.9,2,1.9h8.4c0.6,0,1.1,0.5,1,1.1l-0.9,5.9c-0.1,0.5-0.5,0.8-1,0.8
			l-7.4,0c-0.6,0-1.1,0.2-1.5,0.7l-7.6,8.5v-27.8c0-0.2,0.2-0.4,0.4-0.4h18.7c0.6,0,1.1,0.5,1,1.1l-0.7,5.1
			C848,334.1,847.6,334.5,847.1,334.5L847.1,334.5z M847.1,334.5"/>
	</g>
</g>
<g id="XMLID_398_">
	<g id="XMLID_405_">
		<path id="XMLID_89_" d="M726,359.8h-5c-0.8,0-1.6-0.4-2.2-1c-0.5-0.6-0.8-1.5-0.6-2.3l5.1-30.1c0.2-1.4,1.4-2.4,2.8-2.4h13.7
			c5.1,0,9.3,4.2,9.3,9.3c0,0.6,0,1.2-0.1,1.7l-0.2,1.8l-1.5-1.1c-1-0.7-2.3-1.1-3.5-1.1h-10c-0.6,0-1.1,0.4-1.2,1l-3.7,21.7
			C728.7,358.8,727.5,359.8,726,359.8z M726.1,326.2c-0.3,0-0.6,0.2-0.7,0.6l-5.1,30.1c0,0.3,0.1,0.4,0.1,0.5
			c0.1,0.1,0.2,0.2,0.5,0.2h5c0.3,0,0.6-0.2,0.7-0.5l3.7-21.7c0.3-1.7,1.7-2.9,3.4-2.9h10c1.1,0,2.2,0.2,3.2,0.6
			c-0.1-3.8-3.3-6.9-7.1-6.9H726.1z"/>
	</g>
	<path id="XMLID_29_" d="M733.1,364.2h-4.4c-0.8,0-1.5-0.3-2-0.9c-0.5-0.6-0.7-1.4-0.6-2.2l2.3-13.7c0.4-1.3,1.6-2.2,2.9-2.2h3.8
		c6,0,11-4.5,11.7-10.4l0.2-1.8l1.5,1.1c2.2,1.6,3.5,4.1,3.5,6.8c0,6.9-5.6,12.5-12.5,12.5h-1.2c-0.8,0-1.4,0.5-1.5,1.3l-1.2,7.4
		C735.5,363.2,734.4,364.2,733.1,364.2z M730.5,347.9l-2.3,13.5c0,0.2,0,0.3,0.1,0.4c0.1,0.1,0.2,0.2,0.3,0.2h4.4
		c0.2,0,0.4-0.2,0.4-0.4l1.2-7.4c0.3-1.8,1.9-3.1,3.7-3.1h1.2c5.6,0,10.2-4.6,10.2-10.2c0-1.3-0.4-2.6-1.2-3.7
		c-1.7,6-7.2,10.2-13.5,10.2h-3.8C730.9,347.4,730.6,347.6,730.5,347.9z"/>
	<path id="XMLID_26_" d="M730.5,347.9l-2.2-0.5l2-12.1c0.3-1.7,1.7-2.9,3.4-2.9h10c1.7,0,3.4,0.5,4.8,1.5l0.5,0.4L749,335
		c-0.9,7-6.9,12.3-13.9,12.3h-3.8C730.9,347.4,730.6,347.6,730.5,347.9z M733.8,334.7c-0.6,0-1.1,0.4-1.2,1l-1.6,9.4
		c0.1,0,0.2,0,0.3,0h3.8c5.7,0,10.6-4.1,11.6-9.7c-0.9-0.5-1.9-0.8-3-0.8H733.8z"/>
</g>
<g id="XMLID_400_">
	<path id="XMLID_401_" d="M98.4,236.3h22.2c-2.6,5.4-7.8,9-13.7,9.6h-3.1c-1.9-0.2-3.7-0.7-5.4-1.4
		C98.4,244.2,98.4,236.7,98.4,236.3L98.4,236.3z M112.3,213.4c-2.2-1-4.6-1.5-7-1.5c-2,0-4,0.4-5.9,1.1c0.4,0.4,12.4,11.2,12.9,11.8
		V213.4z M97.6,213.7c-5.7,2.9-9.3,8.7-9.3,15.1c0,1.5,0.2,3,0.6,4.4c0.5-0.4,15.1-13.7,15.1-13.7S97.8,213.9,97.6,213.7L97.6,213.7
		z M96.6,243.4v-14.6c-0.6,0.5-6.8,6.2-7,6.4C90.9,238.6,93.4,241.5,96.6,243.4L96.6,243.4z M114.1,214.4v20.1h7.2
		c0.6-1.8,1-3.7,1-5.6C122.3,223,119.2,217.4,114.1,214.4L114.1,214.4z M114.1,214.4"/>
</g>
<g id="XMLID_415_">
	<g id="XMLID_416_">
		<path id="XMLID_418_" d="M960.9,118.6c-0.6-0.8-0.9-1.8-0.9-2.8c0,0,0,0,0,0c0-9-7.3-16.4-16.4-16.4c-2,0-3.9,0.4-5.6,1
			c-0.9,0.3-2,0.4-3,0.1c-0.9-0.2-1.8-0.3-2.7-0.3c-4,0.3-7.2,3.6-7.4,7.6c-0.1,1.9,0.5,3.7,1.5,5.1c0.6,0.8,0.9,1.8,0.9,2.8v0
			c0,9,7.3,16.4,16.4,16.4c2,0,3.9-0.4,5.6-1c0.9-0.3,2-0.4,3-0.1c0.9,0.2,1.8,0.3,2.7,0.3c4-0.3,7.2-3.5,7.4-7.6
			C962.5,121.8,962,120,960.9,118.6L960.9,118.6z M944.3,112.8c3.3,0.8,8.3,2,8.3,7.5c0,2.7-1.3,4.8-3.8,5.8
			c-1.7,0.7-3.7,0.8-5.4,0.8c-5.2,0-8.4-4-8.6-4.2c-0.8-1.1-0.7-2.6,0.4-3.5c1.1-0.8,2.6-0.7,3.5,0.4c0,0,2,2.3,4.7,2.3
			c3.3,0.1,4.1-0.9,4.2-1.7c0.1-1-0.8-1.8-4.5-2.7c-3.1-0.7-7.9-1.9-7.9-6.9c0-1.6,0.6-6.7,8.9-6.7c5.2,0,8.3,4.1,8.4,4.3
			c0.8,1.1,0.6,2.6-0.5,3.4c-1.1,0.8-2.6,0.6-3.4-0.5c-0.1-0.1-1.8-2-4.5-2.3c-2-0.2-4,0.5-4,1.6
			C940.2,111.6,940.8,111.9,944.3,112.8L944.3,112.8z M944.3,112.8"/>
	</g>
</g>
<g id="XMLID_421_">
	<g id="XMLID_422_">
		<path id="XMLID_424_" d="M1163.9,97.6c-1.3-0.7-4.3-0.5-7.7,0.6c-2.7,2.1-11.3,9.8-11.4,19.4c0,0.8-1.1,1-1.4,0.3
			c-0.8-1.9-1.5-5.1-0.6-10c0.1-0.7-0.8-1.2-1.3-0.6c-0.3,0.4-0.6,0.8-0.9,1.2c-5.5,8-1.6,18.2,4.9,21.7c6.5,3.5,16.1,2.8,20.8-5.7
			C1171,116,1167.2,99.4,1163.9,97.6L1163.9,97.6z M1163.9,97.6"/>
	</g>
</g>
<g id="XMLID_432_">
	<path id="XMLID_433_" d="M315.1,219.8l3.8,8.8l5.2,2.1l-19.8,11l8.5-8.7v-19.1l-8.7-3.5v31.5l8.8,5.4l20.9-12.5v-8.6L315.1,219.8z
		 M315.1,219.8"/>
</g>
<path id="XMLID_414_" d="M330.9,455c-3.9-1.2-5.3-1.8-5.3-3.1c0-2.1,3.1-2.9,3.4-3c2-0.3,4.4,0.7,5.2,3.1l5.3-1.6
	c-1.7-5.2-6.5-7.6-11.3-6.9c-4.9,0.7-8,4.2-8,8.3c0,5.5,5.1,7.1,9,8.2c4.1,1.2,5.2,1.6,5.2,3.1c0,1.3-0.7,2.4-2.7,3
	c-3.9,1-9.1-0.4-10.5-2.8c-0.8-1.4-1.7-3.2-2.5-5.3c-2.4-6.2-5.6-14.6-14.8-14.6c-4.8,0-13.6,2.3-13.6,15.5
	c0,5.5,4.7,12.2,13.5,12.2c7.4,0,8.7-2.7,9-3.2l-2.4-4.7c-0.1,0.1-2.3,3.1-6.6,3.1c-6.9,0-8-7.4-8-7.4c0-6.8,2.9-10.1,8.1-10.1
	c5.1,0,7.1,4.4,9.7,11.1c0.9,2.3,1.8,4.4,2.9,6.2c2.3,3.8,7.2,5.1,12.2,5.1c1.5,0,3.2,0.1,4.6-0.3c4.4-1.2,6.8-3.9,6.8-7.6
	C340,457.5,334.9,456.2,330.9,455L330.9,455z M330.9,455"/>
<path id="XMLID_443_" d="M1159.9,343.1l7.3-9.7c1.8-2.3,1.3-5.7-1.1-7.5c-2.3-1.8-5.7-1.3-7.5,1.1l-7.7,10.2v-7
	c0-2.9-2.4-5.3-5.3-5.3c-2.9,0-5.3,2.4-5.3,5.3V356c0,2.9,2.4,5.3,5.3,5.3c2.9,0,5.3-2.4,5.3-5.3v-7l7.7,10.2c1,1.4,2.6,2.1,4.3,2.1
	c1.1,0,2.2-0.3,3.2-1.1c2.3-1.8,2.8-5.1,1.1-7.5L1159.9,343.1z M1159.9,343.1"/>
<path id="XMLID_449_" d="M123.1,440.3l-37.3,14.6c-1.2,0.5-1.1,2.2,0.1,2.6l9.5,2.8l3.5,11.2c0.4,1.2,1.9,1.5,2.7,0.7l4.9-5l9.6,7.1
	c1.2,0.9,2.9,0.2,3.2-1.2l6.4-30.5C126,441,124.5,439.8,123.1,440.3L123.1,440.3z M118.4,447.1l-17.3,15.3c-0.2,0.2-0.3,0.4-0.3,0.6
	l-0.7,5.9c0,0.2-0.3,0.2-0.4,0l-2.7-8.9c-0.1-0.4,0-0.8,0.4-1.1l20.5-12.7C118.4,446.1,118.9,446.7,118.4,447.1L118.4,447.1z
	 M118.4,447.1"/>
<path id="XMLID_454_" d="M1046.6,349.4l-3.9-2.7l1-1.4l2.9,2V341h4.2v4.1l2.9-1.7l0.9,1.5l-3.8,2.3v2.2l5.7-2.9l0.8,1.5l-6.5,3.3v6
	h13.7l-16-38.2l-16,38.2h14.2V349.4z M1046.6,349.4"/>
<path id="XMLID_462_" d="M229.9,449.1L229.9,449.1l1.3-1.5l-0.1,0l0.1-0.2h-18.2l0.7,2.5h5l-8.4,7.7c-1.7-2.5-5.7-8.2-8.5-12.5h5.2
	v-1.8l0.1-0.5l-0.1,0v-0.2h-19.7v2.5h6.2c2.4,2,12.8,14.6,13.1,15.8c0.2,1.1,0.4,7.8-0.1,8.3c-0.5,0.8-6.2,0.4-7.1,0.4l0,2.4
	c1.8,0.1,7.2,0,9.1,0c3.6,0,9.9-0.1,10.8,0l0.1-2.3l-7.3-0.1c-0.2-1-0.3-7.7-0.2-8.4c0.7-2.1,11.8-10.8,13-11.1l1.1-0.2h3.4
	L229.9,449.1L229.9,449.1z M227.2,466.4l3.2,0.2l3.7-13.5c-0.6,0-6.2-0.5-6.9-0.7L227.2,466.4z M226.7,468.5l0,3.3l1.6,0.1l1.7,0.1
	l0.5-3.2l-1.8-0.1L226.7,468.5L226.7,468.5z M226.7,468.5"/>
<g id="XMLID_463_">
	<path id="XMLID_464_" d="M193.1,228.9c0,6.7,3.9,12.5,9.6,15.3l-8.1-22.2C193.7,224.1,193.1,226.4,193.1,228.9L193.1,228.9z
		 M221.6,228c0-2.1-0.8-3.6-1.4-4.7c-0.9-1.4-1.7-2.6-1.7-4c0-1.6,1.2-3,2.9-3l0.2,0c-3-2.8-7.1-4.5-11.5-4.5c-5.8,0-11,2.9-14,7.4
		c1.3,0,5.5,0,5.5,0c0.9-0.1,1,1.3,0.1,1.4c0,0-0.9,0.1-1.9,0.2l6.2,18.4l3.7-11.2l-2.7-7.3c-0.9-0.1-1.8-0.2-1.8-0.2
		c-0.9-0.1-0.8-1.5,0.1-1.4h9c0.9-0.1,1,1.3,0.1,1.4c0,0-0.9,0.1-1.9,0.2l6.1,18.3l1.7-5.7C221.2,231.3,221.6,229.5,221.6,228
		L221.6,228z M210.4,230.3l-5.1,14.8c1.5,0.4,3.1,0.7,4.8,0.7c2,0,3.9-0.3,5.6-1l-0.1-0.2L210.4,230.3z M225,220.7
		c0.1,0.5,0.1,1.1,0.1,1.8c0,1.7-0.3,3.7-1.3,6.1l-5.2,15c5.1-2.9,8.5-8.4,8.5-14.7C227.1,225.9,226.4,223.1,225,220.7L225,220.7z
		 M225,220.7"/>
</g>
<g id="XMLID_476_">
	<path id="XMLID_106_" d="M113.5,329.9l-0.4-1.3l-4.4,12.5l-1.1,3.3l4.3,12.2c0.5,1.3,1.7,2.2,3.1,2.2h8.8L113.5,329.9z"/>
	<path id="XMLID_479_" d="M111.9,325.4l-5.5,15.8l-5.4,15.5c-0.5,1.3-1.7,2.2-3.1,2.2H89l11.7-33.4H111.9z"/>
</g>
<g id="XMLID_490_">
	<g id="XMLID_491_">
		<path id="XMLID_493_" d="M543.1,227.3l-1.3-13.2c-0.1-1.4-1.3-2.6-2.8-2.7l-12.7-0.9c-0.8-0.1-1.7,0.2-2.3,0.8L506.8,228
			c-1.2,1.2-1.2,3.1,0,4.3l14.1,14.1c1.2,1.2,3,1.2,4.2,0l17.2-16.7C542.9,229.1,543.2,228.2,543.1,227.3L543.1,227.3z M533.3,231.6
			l-2.2,3.6l-4.2-2.9c-0.3-0.2-0.7,0-0.6,0.4l0.4,5.1h-4.2l0.4-5.1c0-0.3-0.4-0.6-0.6-0.4l-4.2,2.9l-2.2-3.6l4.7-2.3
			c0.3-0.1,0.3-0.6,0-0.7l-4.7-2.3l2.2-3.6l4.2,2.9c0.3,0.2,0.7,0,0.6-0.4l-0.4-5.1h4.2l-0.4,5.1c0,0.3,0.4,0.6,0.6,0.4l4.2-2.9
			l2.2,3.6l-5.4,2.7L533.3,231.6z M536,219.4c-1.2,0-2.1-0.9-2.1-2.1c0-1.2,0.9-2.1,2.1-2.1c1.2,0,2.1,0.9,2.1,2.1
			C538.1,218.5,537.2,219.4,536,219.4L536,219.4z M536,219.4"/>
	</g>
</g>
<g id="XMLID_498_">
	<path id="XMLID_499_" d="M1057.6,239.2c0,0-1.1,1.3-3.3,1.3c-2.2,0-3.1-1.3-3.1-3.3v-11h7v-6.7h-7v-11h-5.3c-0.8,4.9-4.1,9-8.5,11
		v6.6h5.1v12.7c0,1.8,1.7,8.1,10.1,8.1c5,0,7-3.2,7-3.2L1057.6,239.2z M1057.6,239.2"/>
</g>
<g id="XMLID_505_">
	<g id="XMLID_506_">
		<path id="XMLID_508_" d="M751.2,228.6c-0.1-0.5-0.5-0.8-1-0.8c-0.4,0-0.7,0.1-1.1,0.1c-2.4,0-5.8-0.2-7.9-1.6
			c-0.2-0.1-0.4-0.3-0.5-0.4c-1.6-1.4-1.9-3-1.9-4.2c0-1.5,0.4-2.7,1.1-3.4c0.6-0.6,1.4-0.7,1.7-0.7c0,0,0,0,0,0
			c0.1,0,0.9,0.1,1.5,0.9c0.4,0.7,1,2.1,0.3,5.2c-0.1,0.3,0.1,0.7,0.4,0.8c1.1,0.4,2.5,0.6,3.5,0.6c0.3,0,0.6-0.2,0.7-0.5
			c0.3-1.5,0.5-2.8,0.4-4.1c-0.1-1.8-0.6-3.4-1.4-4.7c-1.2-1.7-3.1-2.9-5.1-3c-1.4-0.1-3.6,0.4-5.3,2c-1.2,1.1-2.6,3.2-2.5,6.8
			c0,3,1.3,5.8,3.6,7.7c0.7,0.6,1.6,1.2,2.7,1.7c-1.2,2.2-2.6,4-3.7,5.3c-1,1.3-2,2.3-2.7,3c-3.6-2.8-5.7-8.1-6.9-12.3
			c-1.1-4.1-1.6-7.9-1.8-9.4c0-0.4-0.4-0.8-0.9-0.7l-1.6,0.1l2.3-0.2l-3.9,0.3c-0.5,0-0.8,0.4-0.8,0.9c0.2,1.7,0.7,5.8,1.9,10.3
			c1,3.5,2.2,6.5,3.6,9c1.9,3.3,4.2,5.7,6.9,7.2c0.4,0.2,0.7,0.3,1.1,0.3c0.5,0,1.1-0.2,1.5-0.5c0.1-0.1,2.1-1.7,4.5-4.7
			c1.4-1.7,2.7-3.5,3.8-5.4c0.3-0.6,0.7-1.2,1-1.7c1.7,0.2,3.6,0.2,5.8,0c0.5-0.1,0.9-0.5,0.8-1L751.2,228.6z M751.2,228.6"/>
	</g>
</g>
<g id="XMLID_30_">
	<path id="XMLID_523_" d="M842.1,121.1c-0.3,0-0.6,0.1-0.9,0.5v6.3c0.3,0.3,0.6,0.5,0.9,0.5c0.5,0,0.8-0.5,0.8-1.4v-4.4
		C842.9,121.6,842.6,121.1,842.1,121.1L842.1,121.1z M842.1,121.1"/>
	<path id="XMLID_520_" d="M848.9,121.1c-0.6,0-0.9,0.5-0.9,1.4v1h1.9v-1C849.8,121.6,849.5,121.1,848.9,121.1L848.9,121.1z
		 M848.9,121.1"/>
	<path id="XMLID_513_" d="M852.8,114c-1.2-1.2-2.5-1.2-3.1-1.3c-4.3-0.3-10.8-0.3-10.8-0.3h0c0,0-6.5,0-10.8,0.3
		c-0.6,0.1-1.9,0.1-3.1,1.3c-0.9,0.9-1.2,3-1.2,3s-0.3,2.5-0.3,4.9v2.3c0,2.5,0.3,5,0.3,5s0.3,2.1,1.2,3c1.2,1.2,2.7,1.2,3.4,1.3
		c2.5,0.2,10.5,0.3,10.5,0.3s6.5,0,10.8-0.3c0.6-0.1,1.9-0.1,3.1-1.3c0.9-0.9,1.2-3,1.2-3s0.3-2.5,0.3-5V122c0-2.5-0.3-4.9-0.3-4.9
		S853.7,115,852.8,114L852.8,114z M830.3,129.8h-2.1V118H826V116h6.5v1.9h-2.2V129.8z M837.7,129.8h-1.9v-1.1
		c-0.7,0.8-1.4,1.3-2.1,1.3c-0.6,0-1-0.2-1.2-0.8c-0.1-0.3-0.2-0.8-0.2-1.5v-8.1h1.9v7.6c0,0.4,0,0.7,0,0.7c0,0.3,0.2,0.4,0.4,0.4
		c0.4,0,0.8-0.3,1.2-0.9v-7.9h1.9V129.8z M844.7,126.8c0,0.9-0.1,1.6-0.2,2.1c-0.2,0.8-0.7,1.2-1.5,1.2c-0.7,0-1.3-0.4-1.9-1.1v1
		h-1.9V116h1.9v4.5c0.6-0.7,1.2-1.1,1.9-1.1c0.7,0,1.2,0.4,1.5,1.2c0.1,0.4,0.2,1.1,0.2,2.1V126.8z M851.7,125H848v1.8
		c0,1,0.3,1.4,1,1.4c0.5,0,0.7-0.3,0.8-0.7c0-0.1,0-0.5,0-1.3h1.9v0.3c0,0.6,0,1,0,1.2c-0.1,0.4-0.2,0.8-0.4,1.1
		c-0.5,0.7-1.3,1.1-2.3,1.1c-1,0-1.7-0.4-2.3-1.1c-0.4-0.5-0.6-1.3-0.6-2.4v-3.6c0-1.1,0.2-1.9,0.6-2.4c0.5-0.7,1.3-1.1,2.2-1.1
		c0.9,0,1.7,0.4,2.2,1.1c0.4,0.5,0.6,1.3,0.6,2.4V125z M851.7,125"/>
	<path id="XMLID_510_" d="M834,111.4v-5.6l2.5-8.3h-2.1l-1.4,5.5l-1.5-5.5h-2.2c0.4,1.3,0.9,2.6,1.3,3.9c0.7,1.9,1.1,3.4,1.3,4.4
		v5.6H834z M834,111.4"/>
	<path id="XMLID_34_" d="M838.9,111.6c0.9,0,1.7-0.4,2.2-1.1c0.4-0.5,0.6-1.3,0.6-2.4v-3.6c0-1.1-0.2-1.9-0.6-2.4
		c-0.5-0.7-1.3-1.1-2.2-1.1s-1.7,0.4-2.2,1.1c-0.4,0.5-0.6,1.3-0.6,2.4v3.6c0,1.1,0.2,1.9,0.6,2.4
		C837.2,111.2,837.9,111.6,838.9,111.6L838.9,111.6z M838,104c0-1,0.3-1.4,0.9-1.4c0.6,0,0.9,0.5,0.9,1.4v4.4c0,1-0.3,1.4-0.9,1.4
		c-0.6,0-0.9-0.5-0.9-1.4V104z M838,104"/>
	<path id="XMLID_31_" d="M848.5,111.4V101h-1.9v7.9c-0.4,0.6-0.8,0.9-1.2,0.9c-0.3,0-0.4-0.2-0.4-0.4c0-0.1,0-0.3,0-0.7V101h-1.9
		v8.2c0,0.7,0.1,1.2,0.2,1.5c0.2,0.5,0.6,0.8,1.2,0.8c0.7,0,1.4-0.4,2.2-1.3v1.1H848.5z M848.5,111.4"/>
</g>
<g id="XMLID_25_">
	<path id="XMLID_131_" d="M324.8,112.9h-7.2c0.1,0.6,0.2,1.2,0.2,1.8c0,4.9-4,8.9-8.9,8.9c-4.9,0-8.9-4-8.9-8.9c0-4.9,4-8.9,8.9-8.9
		c2,0,3.8,0.7,5.3,1.8l5.1-5.1c-2.8-2.4-6.5-3.9-10.4-3.9c-8.9,0-15.9,7.2-15.9,16.1c0,8.9,7,16.1,15.9,16.1
		c8.9,0,16.1-7.2,16.1-16.1C324.9,114.1,324.9,113.5,324.8,112.9z"/>
	<rect id="XMLID_130_" x="328.5" y="112.9" width="14.3" height="3.6"/>
	
		<rect id="XMLID_129_" x="328.5" y="112.9" transform="matrix(6.123234e-17 -1 1 6.123234e-17 220.9414 450.3719)" width="14.3" height="3.6"/>
	<path id="XMLID_128_" d="M323.1,116.5l1.8-1.8v-3.6h-16.1v7.2h13.5C322.7,117.4,323.1,116.5,323.1,116.5z"/>
</g>
<g id="XMLID_107_">
	<path id="XMLID_264_" d="M1048.5,106.4c1.2,0,2.4,0.8,2.8,1.9c0.4,1.1,1.2,2.6,2.1,4.4c1,1.9,2.7,5,2.7,5.9c0,4.2-3.4,7.6-7.6,7.6
		c-4.2,0-7.6-3.4-7.6-7.6c0-0.9,1.7-4,2.7-5.9c0.9-1.8,1.8-3.4,2.1-4.4C1046.1,107.2,1047.3,106.4,1048.5,106.4 M1048.5,104.7
		L1048.5,104.7C1048.5,104.7,1048.5,104.7,1048.5,104.7C1048.5,104.7,1048.5,104.7,1048.5,104.7L1048.5,104.7z M1048.5,104.7
		c-2,0-3.7,1.3-4.3,3.1c-0.8,2.4-4.9,8.8-4.9,10.9c0,5.1,4.1,9.2,9.2,9.3c5.1,0,9.2-4.2,9.2-9.3c0-2-4.1-8.4-4.9-10.9
		C1052.2,106,1050.5,104.7,1048.5,104.7L1048.5,104.7z M1048.5,127.9C1048.5,127.9,1048.5,127.9,1048.5,127.9L1048.5,127.9
		C1048.5,127.9,1048.5,127.9,1048.5,127.9L1048.5,127.9z"/>
	<path id="XMLID_261_" d="M1048.5,96v8c2.2,0,4-1.8,4-4C1052.5,97.8,1050.7,96,1048.5,96z"/>
	<path id="XMLID_111_" d="M1048.5,133.4c-9.4,0-17.1-7.7-17.1-17.1c0-9.4,7.7-17.1,17.1-17.1c9.4,0,17.1,7.7,17.1,17.1
		C1065.6,125.8,1057.9,133.4,1048.5,133.4z M1048.5,100.8c-8.5,0-15.5,6.9-15.5,15.5s6.9,15.5,15.5,15.5c8.5,0,15.5-6.9,15.5-15.5
		S1057,100.8,1048.5,100.8z"/>
</g>
<g id="XMLID_569_">
	<polygon id="XMLID_574_" points="612,461.3 622.7,468.2 630.2,462 619.4,455.4 	"/>
	<polygon id="XMLID_573_" points="622.7,442.5 612,449.5 619.4,455.4 630.2,448.7 	"/>
	<polygon id="XMLID_572_" points="648.3,449.5 637.6,442.5 630.2,448.7 640.9,455.4 	"/>
	<polygon id="XMLID_571_" points="630.2,462 637.6,468.2 648.3,461.3 640.9,455.4 	"/>
	<polygon id="XMLID_570_" points="630.2,463.4 622.7,469.6 619.5,467.5 619.5,469.8 630.2,476.2 640.9,469.8 640.9,467.5 
		637.7,469.6 	"/>
</g>
<g id="XMLID_565_">
	<polygon id="XMLID_568_" points="624.1,346.8 623.9,346.8 623.8,346.9 619.2,354.9 619,355.4 619.5,355.4 640.8,355.4 641,355.4 
		641.1,355.2 645.6,347.3 645.9,346.8 645.4,346.8 	"/>
	<polygon id="XMLID_567_" points="635.9,344.8 636,344.9 636.2,344.9 645.4,344.9 645.9,344.9 645.6,344.4 635,326 634.9,325.8 
		634.7,325.8 625.5,325.8 625,325.8 625.2,326.3 	"/>
	<polygon id="XMLID_566_" points="628.2,335.4 628.2,335.2 623.5,327.3 623.2,326.8 623,327.3 612.3,345.7 612.2,345.9 612.3,346 
		616.9,354 617.2,354.5 617.5,354 628.2,335.5 	"/>
</g>
<path id="XMLID_562_" d="M940.1,452.6c9.5-2.8,17.5,2.9,17.5,2.9l-6.5,1.8l-1.9-3.5c-1.8-0.3-3.8-0.4-5.9-0.1l4.5,9.1l19.3-5.6
	c0,0-7-11-27.8-7.5c-0.1,0-0.2,0.1-0.4,0.1l-2-4.1l-6,0.7l2.4,5c-12.6,5.3-7,17.6-7,17.6l19.3-5.6L940.1,452.6z M931.3,462.6
	c0,0-1.9-4.1,3.6-7.7l2.9,5.9L931.3,462.6z"/>
<path id="XMLID_546_" d="M713.5,465.9c0.1,0,0.2-0.1,0.2-0.2l0.6-4.3l-0.5-4.4c0-0.1-0.1-0.2-0.2-0.2c-0.1,0-0.2,0.1-0.2,0.2
	l-0.5,4.4l0.5,4.3C713.3,465.8,713.4,465.9,713.5,465.9z M711.9,464.1L711.9,464.1L711.9,464.1L711.9,464.1z M711.7,464.3
	c0.1,0,0.2-0.1,0.2-0.2l0.4-2.7l-0.4-2.7c0-0.1-0.1-0.2-0.2-0.2c-0.1,0-0.2,0.1-0.2,0.2l-0.4,2.7l0.4,2.7
	C711.5,464.2,711.6,464.3,711.7,464.3z M715.6,456.1c0-0.1-0.1-0.2-0.2-0.2c-0.1,0-0.2,0.1-0.2,0.2c0,0-0.5,5.2-0.5,5.2l0.5,5
	c0,0.1,0.1,0.2,0.2,0.2c0.1,0,0.2-0.1,0.2-0.2l0.5-5L715.6,456.1z M717.3,466.9c0.2,0,0.3-0.1,0.3-0.3l0,0l0.5-5.2l-0.5-5.4
	c0-0.2-0.1-0.3-0.3-0.3c-0.2,0-0.3,0.1-0.3,0.3l-0.4,5.4l0.4,5.2C717.1,466.8,717.2,466.9,717.3,466.9z M719.3,467
	c0.2,0,0.3-0.1,0.3-0.3l0,0l0.5-5.3l-0.5-5c0-0.2-0.2-0.3-0.3-0.3c-0.2,0-0.3,0.1-0.3,0.3l-0.4,5l0.4,5.3
	C719,466.8,719.1,467,719.3,467z M722.1,461.4l-0.4-8.1c0-0.2-0.2-0.4-0.4-0.4c-0.2,0-0.4,0.2-0.4,0.4l-0.4,8.1l0.4,5.3
	c0,0.2,0.2,0.4,0.4,0.4c0.2,0,0.4-0.2,0.4-0.4v0L722.1,461.4z M723.3,467c0.2,0,0.4-0.2,0.4-0.4v0l0.4-5.2l-0.4-10
	c0-0.2-0.2-0.4-0.4-0.4c-0.2,0-0.4,0.2-0.4,0.4l-0.4,10l0.4,5.2C722.9,466.8,723,467,723.3,467z M725.3,450.1
	c-0.2,0-0.4,0.2-0.5,0.5l-0.3,10.8l0.3,5.2c0,0.3,0.2,0.5,0.5,0.5c0.2,0,0.4-0.2,0.5-0.5v0l0.4-5.2l-0.4-10.8
	C725.7,450.3,725.5,450.1,725.3,450.1z M727.3,467c0.3,0,0.5-0.2,0.5-0.5v0l0.3-5.1l-0.3-11.2c0-0.3-0.2-0.5-0.5-0.5
	c-0.3,0-0.5,0.2-0.5,0.5l-0.3,11.2l0.3,5.1C726.8,466.8,727,467,727.3,467z M729.3,467c0.3,0,0.5-0.2,0.5-0.5v0l0.3-5.1l-0.3-10.9
	c0-0.3-0.2-0.5-0.5-0.5c-0.3,0-0.5,0.2-0.5,0.5l-0.3,10.9l0.3,5.1C728.8,466.8,729,467,729.3,467z M732.3,461.4l-0.3-10.5
	c0-0.3-0.3-0.6-0.6-0.6c-0.3,0-0.6,0.3-0.6,0.6l-0.3,10.5l0.3,5c0,0.3,0.3,0.6,0.6,0.6c0.3,0,0.6-0.3,0.6-0.6v0L732.3,461.4z
	 M733.5,467c0.3,0,0.6-0.3,0.6-0.6v0l0.3-5l-0.3-12.5c0-0.3-0.3-0.6-0.6-0.6c-0.3,0-0.6,0.3-0.6,0.6l-0.2,12.5c0,0,0.2,5,0.2,5
	C732.8,466.7,733.1,467,733.5,467z M735.5,447.1c-0.4,0-0.7,0.3-0.7,0.7l-0.3,13.6l0.3,4.9c0,0.4,0.3,0.7,0.7,0.7
	c0.4,0,0.7-0.3,0.7-0.7v0l0.3-4.9l-0.3-13.6C736.2,447.4,735.9,447.1,735.5,447.1z M737.4,467c0,0,16.6,0,16.7,0c3.3,0,6-2.7,6-6
	c0-3.3-2.7-6-6-6c-0.8,0-1.6,0.2-2.3,0.5c-0.5-5.4-5-9.7-10.6-9.7c-1.4,0-2.7,0.3-3.9,0.7c-0.5,0.2-0.6,0.4-0.6,0.7v19.2
	C736.8,466.7,737,467,737.4,467z"/>
<path id="path13" d="M1034.3,448l11.8-1.6l0,11.4l-11.8,0.1L1034.3,448z M1046.1,459.1l0,11.4l-11.8-1.6l0-9.9L1046.1,459.1z
	 M1047.6,446.1l15.7-2.3v13.8l-15.7,0.1V446.1z M1063.3,459.2l0,13.7l-15.7-2.2l0-11.5L1063.3,459.2z"/>
<g id="XMLID_393_">
	<g id="XMLID_458_">
		<g id="XMLID_743_">
			<path id="XMLID_744_" d="M819.3,452.3c-6.8,0-7,5.3-7,6.6c0,0-0.3,6.2,6.8,6.2c6.2,0,6.5-3.9,6.5-3.9l-2.8,0c0,0-0.6,2.1-3.6,2.1
				c-3.9-0.1-4.1-3.9-4.1-3.9h10.9C825.9,459.4,826.8,452.3,819.3,452.3z M815.1,457.6c0,0,0.2-3.4,4.1-3.4c3.9,0,3.9,3.4,3.9,3.4
				H815.1z"/>
		</g>
	</g>
	<g id="XMLID_430_">
		<g id="XMLID_747_">
			<path id="XMLID_748_" d="M833.5,452.3c-3.4,0-4.9,2-4.9,2v-6.8h-2.7l0,14.4c0,0,0,1.7-0.1,2.8h2.6l0.1-1.6c0,0,1.2,2,4.8,2
				c3.6,0,6.5-2.2,6.5-6.3C840.1,454.6,836.9,452.3,833.5,452.3z M832.9,463.3c-4.3,0.1-4.2-4.6-4.2-4.6s-0.2-4.4,4.2-4.5
				c4.4-0.1,4.2,4.6,4.2,4.6S837.2,463.2,832.9,463.3z"/>
		</g>
	</g>
	<g id="XMLID_397_">
		<g id="XMLID_751_">
			<path id="XMLID_752_" d="M852.6,461.8c0-1.9,0.1-3.5,0-4.7c-0.1-1.4,0.1-4.6-5.8-4.9c0,0-5.6-0.5-6.2,3.7h2.9
				c0,0,0.2-1.9,3.1-1.9c2.8,0.1,3.3,1.4,3.3,3.1c0,0-2.4,0-3.2,0c-1.4,0-6.4,0.2-6.9,3.2c-0.6,3.6,2.7,4.7,5.2,4.7
				c2.5,0,4-0.8,5-2.1l0.1,1.7l2.5,0C852.7,464.6,852.6,463.7,852.6,461.8z M845.5,463.4c0,0-2.7,0-2.9-2.2
				c-0.2-2.3,4.2-2.2,4.2-2.2l3.1,0C849.9,459,850.4,463.4,845.5,463.4z"/>
		</g>
	</g>
	<polygon id="XMLID_394_" points="851.1,452.8 854.3,452.8 858.9,462 863.5,452.8 866.4,452.8 858,469.2 855,469.2 857.4,464.6 	"/>
</g>
<path id="XMLID_392_" d="M531,448.5c6.8,0,12.4,5.6,12.4,12.4c0,6.8-5.6,12.4-12.4,12.4h-7c-6.7,0-12.4-5.7-12.4-12.4v-16.6
	c0-1.6,1.3-2.9,2.9-2.9c1.6,0,2.9,1.3,2.9,2.9c0,5.5,0,11,0,16.6c0,3.6,3,6.6,6.6,6.6h7c3.6,0,6.6-3,6.6-6.6c0-3.6-3-6.6-6.6-6.6
	h-7.6c-1.6,0-2.9-1.3-2.9-2.9c0-1.6,1.3-2.9,2.9-2.9H531L531,448.5z"/>
<g id="XMLID_395_">
	<path id="XMLID_423_" d="M424.9,442l0.4-0.6l0.4-0.6l0.9-1.3c0.1-0.2,0.1-0.4-0.1-0.5c-0.2-0.1-0.4-0.1-0.5,0.1l-1,1.4l-0.4,0.6
		l-0.4,0.6c-1.3-0.5-2.7-0.8-4.3-0.8c-1.5,0-3,0.3-4.3,0.8l-0.4-0.6l-0.4-0.6l-1-1.4c-0.1-0.2-0.3-0.2-0.5-0.1
		c-0.2,0.1-0.2,0.3-0.1,0.5l0.9,1.3l0.4,0.6l0.4,0.6c-3,1.4-5.1,4.1-5.1,7.2H430C430,446.1,427.9,443.4,424.9,442z M415.7,446.3
		c-0.6,0-1.1-0.5-1.1-1.1c0-0.6,0.5-1.1,1.1-1.1c0.6,0,1.1,0.5,1.1,1.1C416.7,445.8,416.3,446.3,415.7,446.3z M424.3,446.3
		c-0.6,0-1.1-0.5-1.1-1.1c0-0.6,0.5-1.1,1.1-1.1c0.6,0,1.1,0.5,1.1,1.1C425.3,445.8,424.9,446.3,424.3,446.3z"/>
	<path id="XMLID_420_" d="M410.1,450.6h-0.2v1.8v1.5v12.5c0,1.3,1,2.3,2.3,2.3h1.6c-0.1,0.2-0.1,0.4-0.1,0.6v0.1v0.7v3.7
		c0,1.2,1,2.2,2.1,2.2c1.2,0,2.2-1,2.2-2.2V470v-0.7v-0.1c0-0.2,0-0.4-0.1-0.6h4c-0.1,0.2-0.1,0.4-0.1,0.6v0.1v0.7v3.7
		c0,1.2,1,2.2,2.2,2.2c1.2,0,2.2-1,2.2-2.2V470v-0.7v-0.1c0-0.2,0-0.4-0.1-0.6h1.6c1.3,0,2.3-1,2.3-2.3v-12.5v-1.5v-1.8h-0.2H410.1z
		"/>
	<path id="XMLID_402_" d="M406.3,450.6c-1.2,0-2.2,1-2.2,2.1v9.2c0,1.2,1,2.1,2.2,2.1c1.2,0,2.1-1,2.1-2.1v-9.2
		C408.5,451.5,407.5,450.6,406.3,450.6z"/>
	<path id="XMLID_396_" d="M433.6,450.6c-1.2,0-2.1,1-2.1,2.1v9.2c0,1.2,1,2.1,2.1,2.1c1.2,0,2.2-1,2.2-2.1v-9.2
		C435.7,451.5,434.8,450.6,433.6,450.6z"/>
</g>
<path id="XMLID_446_" d="M119.1,553.9H90.2c-1.5,0-2.8,1.2-2.8,2.8v28.9c0,1.5,1.2,2.8,2.8,2.8h16.2c0-1.3,0-7.6,0-13.3h-2.9v-5.8
	h2.9c0-2.1,0-3.6,0-3.8c0-0.8-0.1-5.9,6.2-5.9c0.8,0,2.8,0,4.5,0c0,2.2,0,5.1,0,5.8c-1.3,0-2.6,0-3.9,0c-0.6,0-1,0.3-1,1
	c0,0.1,0,1.2,0,2.9h4.8l-1,5.8h-3.9c0,5.6,0,12,0,13.3h6.9c1.5,0,2.8-1.2,2.8-2.8v-28.9C121.9,555.1,120.6,553.9,119.1,553.9z"/>
</svg>
