<svg width="35" height="36" viewBox="0 0 35 36" fill="none" xmlns="http://www.w3.org/2000/svg">
<path d="M32.1 0.900024H3.20002C1.70002 0.900024 0.400024 2.10001 0.400024 3.70001V32.6C0.400024 34.1 1.60002 35.4 3.20002 35.4H19.4C19.4 34.1 19.4 27.8 19.4 22.1H16.5V16.3H19.4C19.4 14.2 19.4 12.7 19.4 12.5C19.4 11.7 19.3 6.59998 25.6 6.59998C26.4 6.59998 28.4 6.59998 30.1 6.59998C30.1 8.79998 30.1 11.7 30.1 12.4C28.8 12.4 27.5 12.4 26.2 12.4C25.6 12.4 25.2 12.7 25.2 13.4C25.2 13.5 25.2 14.6 25.2 16.3H30L29 22.1H25.1C25.1 27.7 25.1 34.1 25.1 35.4H32C33.5 35.4 34.8 34.2 34.8 32.6V3.70001C34.9 2.10001 33.6 0.900024 32.1 0.900024Z" fill="#FF5100"/>
</svg>
