<svg width="50" height="33" viewBox="0 0 50 33" fill="none" xmlns="http://www.w3.org/2000/svg">
<path d="M31.8 14.9H24.6C24.7 15.5 24.8 16.1 24.8 16.7C24.8 21.6 20.8 25.6 15.9 25.6C11 25.6 7 21.6 7 16.7C7 11.8 11 7.79998 15.9 7.79998C17.9 7.79998 19.7 8.49998 21.2 9.59998L26.3 4.49998C23.5 2.09998 19.8 0.599976 15.9 0.599976C6.99999 0.599976 0 7.79997 0 16.7C0 25.6 6.99999 32.8 15.9 32.8C24.8 32.8 32 25.6 32 16.7C31.9 16.1 31.9 15.5 31.8 14.9Z" fill="#FF5100"/>
<path d="M49.8 14.9H35.5V18.5H49.8V14.9Z" fill="#FF5100"/>
<path d="M40.8414 9.5719V23.8719H44.4414V9.5719H40.8414Z" fill="#FF5100"/>
<path d="M30.1001 18.5L31.9001 16.7V13.1H15.8V20.3H29.3C29.7 19.4 30.1001 18.5 30.1001 18.5Z" fill="#FF5100"/>
</svg>
