<svg width="38" height="32" viewBox="0 0 38 32" fill="none" xmlns="http://www.w3.org/2000/svg">
<path d="M36.3999 1C34.8999 1.9 33.3 2.5 31.6 2.9C30.2 1.4 28.3 0.5 26.1 0.5C21.9 0.5 18.6 4 18.6 8.2C18.6 8.8 18.7 9.4 18.8 10C12.5 9.7 6.99996 6.6 3.29996 1.9C2.69996 3 2.29996 4.4 2.29996 5.8C2.29996 8.5 3.59996 10.8 5.59996 12.2C4.39996 12.2 3.19995 11.8 2.19995 11.2V11.3C2.19995 15 4.79995 18.2 8.19995 18.9C7.59995 19.1 6.89995 19.2 6.19995 19.2C5.69995 19.2 5.19996 19.2 4.79996 19.1C5.79996 22.2 8.49996 24.4 11.8 24.5C9.19996 26.6 5.99995 27.8 2.49995 27.8C1.89995 27.8 1.29995 27.8 0.699951 27.7C3.99995 29.9 7.99995 31.2 12.2 31.2C26 31.2 33.6 19.4 33.6 9.3C33.6 9 33.6 8.6 33.6 8.3C35.1 7.2 36.2999 5.9 37.3999 4.3C36.0999 4.9 34.6 5.3 33.1 5.5C34.7 4.3 35.8999 2.8 36.3999 1Z" fill="#FF5100"/>
</svg>
