<svg width="61" height="60" viewBox="0 0 61 60" fill="none" xmlns="http://www.w3.org/2000/svg">
<path d="M47.5 31.4C54.9 26.2 59.5 17.9 60.1 8.79997C60.1 7.69997 59.3 6.79998 58.2 6.79998H50.7V1.99998C50.7 0.899975 49.8 0.0999756 48.8 0.0999756H11.5C10.4 0.0999756 9.60001 0.999975 9.60001 1.99998V6.79998H2.00001C0.90001 6.79998 1.03544e-05 7.69997 0.10001 8.79997C0.70001 17.8 5.20001 26 12.6 31.3L12.7 31.4C15.4 35.8 19.8 39 24.8 40.3V49.4H18.3C16.3 49.4 14.7 51 14.7 53V56.1H13.3C12.2 56.1 11.4 57 11.4 58C11.4 59.1 12.3 59.9 13.3 59.9H47C48.1 59.9 48.9 59 48.9 58C48.9 56.9 48 56.1 47 56.1H45.6V53C45.6 51 44 49.4 42 49.4H35.5V40.3C40.4 39 44.8 35.8 47.5 31.4ZM18.5 56.2V53.3H41.7V56.2H18.5ZM9.50001 10.7V20.6C9.50001 21.5 9.60001 22.5 9.70001 23.4C8.20001 21.5 6.90001 19.4 5.90001 17.1C5.00001 15.1 4.40001 12.9 4.10001 10.7C4.10001 10.7 9.50001 10.7 9.50001 10.7ZM50.4 23.3C50.5 22.4 50.6 21.4 50.6 20.5V10.6H56C55.3 15.3 53.4 19.7 50.4 23.3ZM13.4 3.89997H46.7V20.5C46.7 29.7 39.3 37.1 30.1 37.1C20.9 37.1 13.5 29.7 13.5 20.5L13.4 3.89997ZM31.5 41V49.5H28.6V41C29.1 41 29.6 41 30 41C30.4 41 31.1 41 31.5 41Z" fill="white"/>
<path d="M24 22.3L23.2 27.1C23.2 28.2 24.1 29.1 25.2 29.1C25.5 29.1 25.7999 29 26.0999 28.9L30.2 26.8L34.2 28.9C34.5 29.1 34.8 29.2 35.2 29.2C36.3 29.2 37.1999 28.3 37.0999 27.2V27.1L36.2 22.4L39.4 19.2C39.8 18.8 40.0999 18.3 40.0999 17.8C40.0999 16.8 39.4 16 38.4 15.9L33.9 15.2L31.9 11.1C31.6 10.4 30.8999 10 30.0999 10C29.3999 10 28.7 10.4 28.4 11.1L26.4 15.2L21.9 15.9C20.9 16 20.2 16.8 20.2 17.8C20.2 18.3 20.3999 18.8 20.7999 19.2L24 22.3ZM32.5 23.6L30.0999 22.3L27.7 23.6L28.2 20.9L26.2999 19L29 18.6L30.2 16.2L31.4 18.6L34.0999 19L32 20.9L32.5 23.6Z" fill="white"/>
</svg>
