<svg width="358" height="448" viewBox="0 0 358 448" fill="none" xmlns="http://www.w3.org/2000/svg">
<path d="M343.2 191.7C333.4 181.4 320.2 175.8 305.8 175.8H304.8C300.7 175.8 296.8 176.2 293 177.2C283.3 164.1 268.2 156.2 251.4 156.2C247.1 156.2 242.9 156.7 238.7 157.7C229 144.5 213.9 136.6 196.9 136.6C196.3 136.6 195.7 136.6 195.1 136.7V119.3C195.1 105.2 189.9 91.6 180.6 81.2C170.6 70 157.2 63.9 142.7 63.9C113.6 63.9 89.0999 89.2 89.0999 119.2V226C79.5999 218.6 67.4999 214.7 54.4999 215.1C40.1999 215.5 26.8999 220.9 17.8999 230C8.59992 239.3 2.29993 252 0.499925 264.9C-1.70007 281.2 3.39993 296.6 15.0999 308.2L120.1 412.5C122.7 415.1 125.8 417.5 129.1 419.6C149.9 436.3 174.5 447.4 225.9 447.4C280.2 447.4 316.4 432.9 336.8 403C354.1 377.5 357.7 344.9 357.7 303.7V229.1C357.8 214.9 352.6 201.6 343.2 191.7ZM325.8 303.8C325.8 339 323.2 366.3 310.4 385.1C301.6 398.1 283.1 415.5 226 415.5C183.3 415.5 164.8 407.4 148.7 394.2C148.1 393.7 147.5 393.3 146.8 392.9C145.2 391.9 143.9 390.9 142.7 389.8L37.6999 285.5C26.3999 274.1 34.6999 258.4 40.4999 252.6C43.6999 249.4 49.3999 247.3 55.3999 247.1C61.6999 247 67.3999 249 71.0999 252.6L93.8999 275.4C98.4999 279.9 105.4 281.3 111.4 278.9C117.4 276.4 121.3 270.6 121.3 264.1V119.1C121.3 106.9 131.6 95.8 142.9 95.8C155.1 95.8 163.3 107.9 163.3 119.1V136.7C163.2 137.6 163 138.6 163 139.6V224.2C163 233.1 170.1 240.2 179 240.2C187.9 240.2 195 233.1 195 224.2V169C195.8 168.7 196.5 168.6 197 168.6C205.2 168.6 212 173.2 215.4 180.9V240C215.4 248.9 222.6 256 231.4 256C240.2 256 247.4 248.9 247.4 240V188.5C248.7 188.2 250.1 188.1 251.4 188.1C259.6 188.1 266.4 192.7 269.8 200.4V256.5C269.8 265.4 276.9 272.5 285.8 272.5C294.6 272.5 301.8 265.4 301.8 256.5V208C302.8 207.9 303.8 207.7 304.8 207.7H305.8C312.9 207.7 317.4 211 320 213.6C323.8 217.5 325.8 223 325.8 229V303.8ZM63.6999 110.6C72.4999 110.6 79.6999 103.5 79.6999 94.5999C79.6999 60.1999 107.7 32.1999 142.1 32.1999C176.5 32.1999 204.5 60.1999 204.5 94.5999C204.5 103.4 211.7 110.6 220.5 110.6C229.3 110.6 236.5 103.5 236.5 94.5999C236.5 42.4999 194.2 0.199951 142.1 0.199951C89.9999 0.199951 47.6999 42.4999 47.6999 94.5999C47.6999 103.5 54.8999 110.6 63.6999 110.6Z" fill="#CB5004"/>
</svg>
