<svg width="43" height="26" viewBox="0 0 43 26" fill="none" xmlns="http://www.w3.org/2000/svg">
<path d="M42 22.8C41.9 22.6 41.2 21 37.9 17.8C34.4 14.4 34.9 15 39.1 9.09998C41.6 5.49998 42.7 3.39996 42.3 2.39996C42.1 1.79996 40.1 1.99997 40.1 1.99997H34C34 1.99997 33 1.99998 32.6 2.59998C31.9 3.79998 31.6 5.39998 30.3 7.69998C27.5 12.7 26.4 12.9 26 12.6C24.9 11.9 25.2 9.69998 25.2 8.19998C25.2 3.39998 25.9 1.39996 23.9 0.899963C23.2 0.699963 22.8 0.699976 21 0.599976C18.7 0.699976 16.9 0.599982 15.8 1.19998C15.1 1.59998 14.5 2.39996 14.9 2.39996C15.3 2.49996 16.2 2.69996 16.7 3.39996C17.3 4.29996 17.3 6.39996 17.3 6.39996C17.3 6.39996 17.7 12 16.4 12.7C15.6 13.2 14.4 12.2 11.9 7.69998C10.6 5.39998 10.5 3.89996 9.70001 2.89996C9.20001 2.19996 8.20001 1.99997 8.20001 1.99997H2.29999C2.29999 1.99997 1.30001 1.89998 1.10001 2.19998C0.800008 2.59998 1.10001 3.29996 1.10001 3.29996C1.10001 3.29996 5.7 14.7 11 20.4C15.8 25.7 21.3 25.4 21.3 25.4C21.3 25.4 24.5 25.5 24.9 24.8C25.2 24.5 25.2 23.7 25.2 23.7C25.2 23.7 25.2 20.2 26.7 19.7C28.2 19.2 30.2 23.1 32.2 24.6C33.8 25.7 34.2 25.5 35 25.5C36.5 25.5 40.5 25.5 40.5 25.5C40.5 25.5 43.4 25.2 42 22.8Z" fill="#FF5100"/>
</svg>
